<?xml version="1.0" encoding="UTF-8"?>
<svg width="128px" height="131px" viewBox="0 0 128 131" version="1.1" xmlns="http://www.w3.org/2000/svg" xmlns:xlink="http://www.w3.org/1999/xlink">
    <title>netronaut-logo</title>
    <g id="Page-1" stroke="none" stroke-width="1" fill="none" fill-rule="evenodd">
        <g id="Icons" transform="translate(-1337.000000, -1568.000000)" fill="#000000" fill-rule="nonzero">
            <g id="Group" transform="translate(1337.000000, 1568.000000)">
                <path d="M126.995775,3.73080403 C126.995775,2.0964381 125.673519,0.774586583 124.038652,0.774586583 C122.403785,0.774586583 121.081529,2.0964381 121.081529,3.73080403 L121.081529,87.5902468 L108.142002,71.7575907 L108.142002,3.84482955 C108.142002,2.21046363 106.819745,0.888612112 105.184878,0.888612112 C103.550012,0.888612112 102.227755,2.21046363 102.227755,3.84482955 L102.227755,64.5233042 L50.3809334,1.087101 C49.9077935,0.508527014 49.2572265,0.158004087 48.5728635,0.0439785572 C48.5559658,0.0397553895 48.5390678,0.0397553895 48.5221701,0.0355322215 C48.4334564,0.0228627183 48.348967,0.0144163828 48.2602533,0.010193215 C48.2349066,0.010193215 48.2095599,0 48.1799886,0 L25.3847919,0 C24.7004291,-0.0151457917 24.0076173,0.200235765 23.4373149,0.66478422 C22.1742008,1.69946033 21.9841,3.56187732 23.0190932,4.82460447 L96.1698766,94.3219762 L80.9829357,94.3219762 C80.9449156,94.271298 80.91112,94.2206202 80.8688753,94.169942 L5.59318764,2.07109909 C4.67225491,0.943513294 3.09653062,0.677453725 1.86721218,1.35738374 C0.773076537,1.79237002 0,2.8566083 0,4.1024428 L0,95.9225567 C0,97.5569228 1.32225659,98.8787742 2.95712336,98.8787742 C4.59199014,98.8787742 5.91424673,97.5569228 5.91424673,95.9225567 L5.91424673,11.8055008 L18.9720587,27.7817445 L18.9720587,95.876102 C18.9720587,97.5104678 20.2943153,98.8323192 21.929182,98.8323192 C23.5640488,98.8323192 24.8863054,97.5104678 24.8863054,95.876102 L24.8863054,35.0202542 L76.2895586,97.9116686 C76.5768218,98.2664148 76.9316767,98.5324744 77.3203272,98.7140706 C77.5695706,98.8576585 77.8568338,98.9505682 78.1609953,98.9674608 C78.4144627,99.0054692 78.6679305,99.0096923 78.9213983,98.9801302 L101.044906,98.9801302 C101.813758,99.0688168 102.616405,98.8618816 103.262748,98.3339855 L103.262748,98.3339855 C104.525862,97.2993095 104.715963,95.4368925 103.68097,94.1741652 L30.5175131,4.65567777 L45.6748827,4.65567777 C45.7171274,4.71480214 45.759372,4.77392647 45.8058411,4.82882766 L121.626484,97.5949312 C122.661478,98.8576585 124.524465,99.047701 125.787579,98.0130246 L125.787579,98.0130246 C126.024149,97.8187589 126.222699,97.5949312 126.383228,97.3542105 C126.767655,96.8558768 127,96.2308478 127,95.5551411 L127,3.73080403 L126.995775,3.73080403 Z" id="Path"></path>
                <g transform="translate(0.000000, 107.000000)">
                    <polygon id="Path" points="0.202772277 22.9408873 0.202772277 0.109868503 17.4722112 18.0145017 17.4722112 1.02912621 19.9308251 1.02912621 19.9308251 23.9270001 2.66138614 6.02236697 2.66138614 22.9408873"></polygon>
                    <path d="M37.2720793,19.4602433 C36.8749835,20.2165417 36.2751155,21.0355168 35.5780857,21.6622834 C34.3149835,22.777928 32.7561716,23.3378395 30.9945876,23.3378395 C27.6741914,23.3378395 24.1848185,21.2695096 24.1848185,16.2094138 C24.1848185,12.1354308 26.7110231,8.98070543 30.8594061,8.98070543 C33.5503629,8.98070543 35.2443563,10.2927369 36.0723433,11.479415 C36.9341253,12.6953423 37.4326072,14.7970997 37.3692408,16.6021875 L26.6392079,16.6021875 C26.6730033,19.4268158 28.6331353,21.2360821 31.0241583,21.2360821 C32.1520793,21.2360821 33.0518813,20.905985 33.8460727,20.2499693 C34.4755114,19.7234853 34.9739933,19.034042 35.2739273,18.3780263 L37.2720793,19.4602433 Z M34.9148515,14.6299619 C34.5177557,12.494777 32.8871288,11.0824628 30.8636304,11.0824628 C28.8359076,11.0824628 27.1757096,12.5950596 26.8124092,14.6299619 L34.9148515,14.6299619 Z" id="Shape"></path>
                    <polygon id="Path" points="43.4819803 11.4752366 43.4819803 22.9408873 41.0909572 22.9408873 41.0909572 11.4752366 39.6293068 11.4752366 39.6293068 9.30662406 41.0909572 9.30662406 41.0909572 4.38023842 43.4819803 4.38023842 43.4819803 9.30662406 45.8730032 9.30662406 45.8730032 11.4752366"></polygon>
                    <path d="M48.1330692,9.30662406 L50.5240923,9.30662406 L50.5240923,10.7857933 C50.7564356,10.4264471 51.7871948,8.98070543 53.6459407,8.98070543 C54.3767656,8.98070543 55.1751815,9.24394739 55.7708252,9.54061692 L54.6429042,11.6758019 C54.1106272,11.3164557 53.6121453,11.216173 53.2488449,11.216173 C52.2856767,11.216173 51.6858087,11.6089468 51.3225082,12.0685757 C50.9254124,12.5950596 50.5240923,13.5143173 50.5240923,15.7497849 L50.5240923,22.9450658 L48.1330692,22.9450658 L48.1330692,9.30662406 L48.1330692,9.30662406 Z" id="Path"></path>
                    <path d="M56.3031022,16.1759862 C56.3031022,12.0351481 59.3911551,8.98070543 63.6113531,8.98070543 C67.8273268,8.98070543 70.9196041,12.0351481 70.9196041,16.1759862 C70.9196041,20.3168244 67.7977557,23.3378395 63.6113531,23.3378395 C59.4249505,23.3378395 56.3031022,20.3126459 56.3031022,16.1759862 Z M58.7617161,16.1759862 C58.7617161,19.5270984 61.1527392,21.2360821 63.6113531,21.2360821 C66.1037624,21.2360821 68.4609902,19.4936709 68.4609902,16.1759862 C68.4609902,12.824874 66.1375577,11.0824628 63.6113531,11.0824628 C61.0851485,11.0824628 58.7617161,12.8541231 58.7617161,16.1759862 Z" id="Shape"></path>
                    <path d="M74.5737294,9.30662406 L76.9647525,9.30662406 L76.9647525,10.8818975 C77.3956437,10.321986 78.6249505,8.97652697 80.9188119,8.97652697 C82.5452145,8.97652697 84.0406602,9.63254269 84.8728712,10.8484699 C85.569901,11.8680103 85.6712871,12.9836549 85.6712871,14.4962517 L85.6712871,22.9408873 L83.280264,22.9408873 L83.280264,14.5631068 C83.280264,13.7399533 83.2126732,12.787268 82.6508252,12.0643972 C82.1861386,11.4710581 81.4553135,11.0782844 80.3907592,11.0782844 C79.5585479,11.0782844 78.6629702,11.3080988 77.9659407,12.1312523 C77.0365676,13.2134693 76.9689768,14.8263488 76.9689768,15.8124616 L76.9689768,22.9408873 L74.5779537,22.9408873 L74.5779537,9.30662406 L74.5737294,9.30662406 Z" id="Path"></path>
                    <path d="M100.744026,9.30662406 L103.135049,9.30662406 L103.135049,22.9408873 L100.744026,22.9408873 L100.744026,21.0355168 C99.9456104,22.0550571 98.4543896,23.3336611 96.0295711,23.3336611 C92.5444226,23.3336611 89.3211881,20.9018066 89.3211881,16.1049527 C89.3211881,11.4083815 92.5106272,8.97652697 96.0295711,8.97652697 C98.6867326,8.97652697 100.114588,10.4222686 100.744026,11.2412437 L100.744026,9.30662406 Z M91.7755774,16.1091311 C91.7755774,19.034042 93.4357757,21.2319036 96.2914851,21.2319036 C99.2147855,21.2319036 100.874984,18.8334767 100.874984,16.1383802 C100.874984,12.6243087 98.4163696,11.0782844 96.2914851,11.0782844 C93.9342573,11.0824628 91.7755774,12.7914465 91.7755774,16.1091311 Z" id="Shape"></path>
                    <path d="M110.046205,17.2582033 C110.046205,18.2108885 110.046205,19.3265331 110.709439,20.1831142 C111.076964,20.642743 111.803564,21.2360821 113.134257,21.2360821 C114.464951,21.2360821 115.191551,20.642743 115.559076,20.1831142 C116.22231,19.3307116 116.22231,18.2108885 116.22231,17.2582033 L116.22231,9.30662406 L118.613333,9.30662406 L118.613333,17.5214453 C118.613333,19.1970013 118.448581,20.4463562 117.350231,21.6288558 C116.120924,22.9116382 114.494522,23.3378395 113.134257,23.3378395 C111.773993,23.3378395 110.143366,22.9116382 108.914059,21.6288558 C107.819934,20.4463562 107.650957,19.1970013 107.650957,17.5214453 L107.650957,9.30662406 L110.04198,9.30662406 L110.04198,17.2582033 L110.046205,17.2582033 Z" id="Path"></path>
                    <polygon id="Path" points="125.587855 11.4752366 125.587855 22.9408873 123.196832 22.9408873 123.196832 11.4752366 121.735181 11.4752366 121.735181 9.30662406 123.196832 9.30662406 123.196832 4.38023842 125.587855 4.38023842 125.587855 9.30662406 127.978878 9.30662406 127.978878 11.4752366"></polygon>
                </g>
            </g>
        </g>
    </g>
</svg>