<?xml version="1.0" encoding="UTF-8"?>
<svg width="271px" height="101px" viewBox="0 0 271 101" version="1.1" xmlns="http://www.w3.org/2000/svg" xmlns:xlink="http://www.w3.org/1999/xlink">
    <title>tu-bs-logo</title>
    <g id="Page-1" stroke="none" stroke-width="1" fill="none" fill-rule="evenodd">
        <g id="Icons" transform="translate(-887.000000, -1361.000000)">
            <g id="Group" transform="translate(887.000000, 1361.000000)">
                <polygon id="Path" fill="#BE1E3C" fill-rule="nonzero" points="0 0 271 0 271 101 0 101"></polygon>
                <path d="M57.2777778,45.4206219 C57.8622384,45.1063519 58.425251,44.7520249 58.962963,44.3600655 C59.4385416,43.9314913 59.7960811,43.3830188 60,42.7692308 C59.4359302,42.0145303 59.2014203,41.0552166 59.3518519,40.1178396 C59.3518519,40.1178396 59.0925926,39.8527005 58.8333333,40.1178396 C58.2427462,40.3779087 57.6365847,40.5993047 57.0185185,40.7806874 C57.0185185,40.7806874 56.7592593,42.106383 57.0185185,42.2389525 C57.2777778,42.3715221 58.0555556,42.5040917 57.9259259,42.9018003 C57.7764996,43.3270698 57.5055137,43.6965787 57.1481481,43.9623568 C56.7437771,44.2721226 56.3094055,44.5386563 55.8518519,44.7577741 C55.2182441,44.5850398 54.5578288,44.5400136 53.9074074,44.6252046 C53.7140464,44.670757 53.5630608,44.825167 53.5185185,45.0229133 C53.4325442,45.0102225 53.3452335,45.0102225 53.2592593,45.0229133 C53.1641617,45.0465208 53.0755257,45.0918439 53,45.1554828 C53.0755257,45.2191217 53.1641617,45.2644449 53.2592593,45.2880524 C53.3447971,45.3059087 53.4329807,45.3059087 53.5185185,45.2880524 C53.5630608,45.4857987 53.7140464,45.6402086 53.9074074,45.685761 C54.334713,45.7788445 54.7763981,45.7788445 55.2037037,45.685761 L55.5925926,45.8183306 L55.3333333,46.2160393 C54.9981696,46.3859752 54.691813,46.6097642 54.4259259,46.8788871 C54.2884956,47.069135 54.2409871,47.3120648 54.2962963,47.5417349 C54.1774016,47.6488784 54.0880168,47.7859965 54.037037,47.9394435 C54.0195767,48.0269213 54.0195767,48.1171049 54.037037,48.2045827 C54.1225749,48.222439 54.2107585,48.222439 54.2962963,48.2045827 C54.3932819,48.1864965 54.4832161,48.1405096 54.5555556,48.0720131 C54.8762111,48.1633585 55.2123958,47.9914539 55.3333333,47.6743044 C55.5396037,47.3858064 55.7135336,47.0745259 55.8518519,46.7463175 L55.9814815,46.613748 C56.1111111,46.613748 56.2407407,46.613748 56.1111111,47.0114566 C56.070208,47.3193714 56.070208,47.6315288 56.1111111,47.9394435 C56.2407407,48.6022913 56.7592593,48.6022913 56.7592593,48.6022913 C56.7417989,48.6897691 56.7417989,48.7799527 56.7592593,48.8674304 C56.8714512,48.9534828 57.0079082,49 57.1481481,49 C57.1810784,48.8695692 57.1810784,48.7327221 57.1481481,48.6022913 C57.1517552,48.5581785 57.1517552,48.5138346 57.1481481,48.4697218 C57.3321408,48.363492 57.4347039,48.1537138 57.4074074,47.9394435 C57.3150715,47.5504263 57.1377995,47.1878414 56.8888889,46.8788871 L56.8888889,46.3486088 L57.2777778,46.4811784 C57.4348086,46.7552052 57.6579761,46.983434 57.9259259,47.1440262 C58.1153577,47.2991327 58.3846423,47.2991327 58.5740741,47.1440262 C58.6141706,47.1912893 58.6574887,47.2355899 58.7037037,47.2765957 C58.831242,47.3102728 58.9650543,47.3102728 59.0925926,47.2765957 C59.1012563,47.1884381 59.1012563,47.0996143 59.0925926,47.0114566 C59.0329267,46.8994004 58.9429045,46.8073366 58.8333333,46.7463175 C58.8527309,46.5594477 58.8068078,46.3715891 58.7037037,46.2160393 C58.2760963,45.8360065 57.7955125,45.5232445 57.2777778,45.2880524 L57.2777778,45.4206219 Z" id="Path" fill="#FFFFFF"></path>
                <path d="M66,47.2163588 C65.9117371,47.231711 65.8215962,47.231711 65.7333333,47.2163588 L65.4666667,47.2163588 C65.3016528,47.3143948 65.0983472,47.3143948 64.9333333,47.2163588 C64.5903295,47.0337197 64.3108212,46.7460989 64.1333333,46.3931398 L63.7333333,46.3931398 L63.7333333,46.6675462 C63.9893556,46.9872992 64.1716926,47.3625573 64.2666667,47.7651715 C64.3243283,47.9594039 64.2730367,48.1705251 64.1333333,48.3139842 C64.2303367,48.531763 64.2303367,48.7822212 64.1333333,49 C63.9714755,48.9629054 63.8288618,48.8650701 63.7333333,48.7255937 C63.7153741,48.6350583 63.7153741,48.5417227 63.7333333,48.4511873 C63.7333333,48.4511873 63.2,48.4511873 63.0666667,47.7651715 C63.0245949,47.4464944 63.0245949,47.1234264 63.0666667,46.8047493 L63.0666667,46.3931398 C63.0666667,46.3931398 62.8,46.3931398 62.6666667,46.6675462 C62.5657918,47.0009926 62.4317486,47.3228378 62.2666667,47.6279683 C62.09723,47.9034126 61.7628212,48.0181175 61.4666667,47.9023747 C61.4132197,48.0242094 61.3183983,48.1217828 61.2,48.176781 C61.1120182,48.1952614 61.0213151,48.1952614 60.9333333,48.176781 C60.8923904,48.0428122 60.8923904,47.8991403 60.9333333,47.7651715 C60.9632017,47.6669418 61.0082204,47.5742912 61.0666667,47.4907652 C60.9963852,47.1865125 61.0997054,46.8675555 61.3333333,46.6675462 C61.6068172,46.3890168 61.9219268,46.1574059 62.2666667,45.9815303 C62.2666667,45.9815303 62.5333333,45.8443272 62.4,45.707124 L62.1333333,45.5699208 C61.693819,45.6662577 61.2395143,45.6662577 60.8,45.5699208 C60.5505246,45.5780436 60.3289419,45.4070332 60.2666667,45.1583113 C60.1786849,45.1767918 60.0879818,45.1767918 60,45.1583113 C59.9359944,45.0783731 59.8904102,44.9845586 59.8666667,44.883905 C59.9109994,44.8793201 59.9556672,44.8793201 60,44.883905 C60.0884307,44.8707707 60.178236,44.8707707 60.2666667,44.883905 C60.2666667,44.883905 60.2666667,44.3350923 60.8,44.3350923 C61.4781361,44.2753879 62.1607561,44.3690455 62.8,44.6094987 C63.1295003,43.7366701 63.2661354,42.7993317 63.2,41.8654354 C63.0666667,41.0422164 61.8666667,41.1794195 61.6,40.4934037 C61.3333333,39.8073879 61.2,38.0237467 60.5333333,37.8865435 C59.4666667,37.7493404 60.4,38.5725594 56.5333333,39.5329815 C55.4666667,39.8073879 54.5333333,39.5329815 53.8666667,40.3562005 C53.7333333,40.4934037 53.2,41.7282322 52.5333333,42.5514512 C52.0475934,43.3182615 51.411849,43.9724576 50.6666667,44.4722955 C51.0644671,44.6226689 51.4276616,44.8562537 51.7333333,45.1583113 C51.8393832,45.319298 51.8866184,45.5137227 51.8666667,45.707124 C51.9793685,45.7702759 52.0719627,45.8655575 52.1333333,45.9815303 C52.1422446,46.0727693 52.1422446,46.1646977 52.1333333,46.2559367 C52.0450705,46.2712888 51.9549295,46.2712888 51.8666667,46.2559367 L51.7333333,46.2559367 C51.5384892,46.4164646 51.2615108,46.4164646 51.0666667,46.2559367 C50.7910612,46.0897315 50.5615174,45.8535255 50.4,45.5699208 C50.2666667,45.2955145 50.1333333,45.2955145 50,45.4327177 L50,45.707124 C50.2560223,46.026877 50.4383592,46.4021351 50.5333333,46.8047493 C50.629744,47.06997 50.5142331,47.3671288 50.2666667,47.4907652 C50.2698453,47.5364411 50.2698453,47.5822924 50.2666667,47.6279683 C50.3005378,47.762958 50.3005378,47.9045882 50.2666667,48.0395778 C50.1224199,48.0395778 49.9820641,47.9914347 49.8666667,47.9023747 C49.8487075,47.8118393 49.8487075,47.7185037 49.8666667,47.6279683 C49.8666667,47.6279683 49.3333333,47.6279683 49.2,46.8047493 C49.1702784,46.5311952 49.1702784,46.2550845 49.2,45.9815303 L49.2,45.5699208 L48.9333333,45.707124 C48.7900828,46.0462995 48.6112436,46.3683516 48.4,46.6675462 C48.2756071,46.9957808 47.9298171,47.1736938 47.6,47.0791557 C47.5255937,47.1500463 47.43309,47.1976406 47.3333333,47.2163588 C47.2453516,47.2348393 47.1546484,47.2348393 47.0666667,47.2163588 C47.0257237,47.08239 47.0257237,46.9387182 47.0666667,46.8047493 C47.1390118,46.6977087 47.2293118,46.6047879 47.3333333,46.530343 C47.2764439,46.2926454 47.3253098,46.0412247 47.4666667,45.8443272 C47.7314364,45.5187375 48.0468219,45.2405611 48.4,45.0211082 C48.5333333,45.0211082 48.6666667,45.0211082 48.6666667,44.7467018 C48.6666667,44.4722955 48.4,44.6094987 48.2666667,44.7467018 C47.8271523,44.8430387 47.3728477,44.8430387 46.9333333,44.7467018 C46.6916267,44.6826192 46.5254397,44.4546053 46.5333333,44.1978892 C46.4453516,44.2163696 46.3546484,44.2163696 46.2666667,44.1978892 C46.1688521,44.1734565 46.0776836,44.1265493 46,44.060686 C46.0613706,43.9447132 46.1539648,43.8494315 46.2666667,43.7862797 C46.3550974,43.7731454 46.4449026,43.7731454 46.5333333,43.7862797 C46.6268941,43.5608913 46.8301996,43.4039867 47.0666667,43.3746702 C47.7887935,43.2989778 48.5181989,43.3927997 49.2,43.6490765 C49.8353139,43.2204623 50.417398,42.7136345 50.9333333,42.1398417 C51.2563969,41.640261 51.4827561,41.0812316 51.6,40.4934037 C51.7333333,39.8073879 51.6,39.6701847 51.3333333,39.5329815 C50.8358289,39.1864135 50.3871565,38.7708884 50,38.298153 C49.5546155,37.6074794 49.3222547,36.7945232 49.3333333,35.9656992 C48.8004762,35.4601446 48.3098601,34.909393 47.8666667,34.3192612 C47.8786708,34.7913769 47.7875422,35.2602448 47.6,35.6912929 C47.5198296,35.8740449 47.3775975,36.0204051 47.2,36.1029024 C47.1620972,36.1549063 47.1172038,36.2011026 47.0666667,36.2401055 C46.990861,36.3441133 46.9010742,36.436506 46.8,36.5145119 C46.7392384,36.4324486 46.6940087,36.3393636 46.6666667,36.2401055 C46.6577554,36.1488666 46.6577554,36.0569382 46.6666667,35.9656992 C46.477417,35.8557565 46.3719236,35.6386461 46.4,35.4168865 C46.4189303,35.0170601 46.5587782,34.6333089 46.8,34.3192612 L46.8,33.9076517 L46.4,34.0448549 C46.2096584,34.4247375 45.9357138,34.7536157 45.6,35.005277 C45.4349861,35.103313 45.2316806,35.103313 45.0666667,35.005277 C44.9784038,35.0206292 44.8882629,35.0206292 44.8,35.005277 C44.6809884,35.0869953 44.5428573,35.1343754 44.4,35.1424802 C44.4237435,35.0418267 44.4693278,34.9480121 44.5333333,34.8680739 C44.5570769,34.7674203 44.6026611,34.6736058 44.6666667,34.5936675 C44.6666667,34.5936675 44.5333333,34.182058 45.2,33.7704485 C45.449002,33.5995579 45.7177423,33.4612878 46,33.3588391 C46.2666667,33.3588391 46.2666667,33.3588391 46.2666667,33.0844327 C46.2666667,32.8100264 46.2666667,33.0844327 46,33.0844327 C45.6454349,33.1230532 45.2878985,33.1230532 44.9333333,33.0844327 C44.6179179,33.0182503 44.3935095,32.7295984 44.4,32.3984169 C44.3002433,32.3796986 44.2077396,32.3321043 44.1333333,32.2612137 C44.0693278,32.1812755 44.0237435,32.0874609 44,31.9868074 C44.0776836,31.9209441 44.1688521,31.8740369 44.2666667,31.8496042 C44.3550974,31.8364699 44.4449026,31.8364699 44.5333333,31.8496042 C44.756039,31.6578551 45.062231,31.605342 45.3333333,31.7124011 C45.7160671,31.8330433 46.0765681,32.0185253 46.4,32.2612137 C46.4,32.3984169 46.6666667,32.5356201 46.6666667,32.2612137 L46.6666667,31.9868074 C46.4078442,31.6175634 46.2262432,31.197102 46.1333333,30.7519789 C46.105257,30.5302194 46.2107504,30.3131089 46.4,30.2031662 C46.3850809,30.1123416 46.3850809,30.0195845 46.4,29.9287599 C46.3820408,29.8382246 46.3820408,29.7448889 46.4,29.6543536 C46.4879818,29.6358731 46.5786849,29.6358731 46.6666667,29.6543536 C46.725113,29.7378796 46.7701317,29.8305302 46.8,29.9287599 C47.085014,29.9046227 47.3532392,30.0702288 47.4666667,30.3403694 C47.7747317,30.8279084 47.9155298,31.4074465 47.8666667,31.9868074 C48.0947956,32.4983449 48.4110017,32.9631785 48.8,33.3588391 C49.1206661,33.6404835 49.480127,33.8716672 49.8666667,34.0448549 C50.2135914,33.5411595 50.6162999,33.0807188 51.0666667,32.6728232 L52.4,31.4379947 C52.6659046,31.1524717 52.8904346,30.8290064 53.0666667,30.4775726 C52.498998,30.3202857 51.901002,30.3202857 51.3333333,30.4775726 C51.3333333,30.3403694 51.0666667,29.9287599 51.2,29.6543536 C51.8970416,29.4484975 52.6362917,29.4484975 53.3333333,29.6543536 C53.4666667,29.3799472 53.8666667,28.6939314 53.3333333,28.4195251 C52.5785398,28.0281432 51.6881269,28.0281432 50.9333333,28.4195251 C50.6442937,28.1977876 50.5350959,27.8045027 50.6666667,27.4591029 C50.1333333,26.9102902 50.4,26.7730871 50.6666667,26.6358839 C51.0988501,26.5046867 51.5511278,26.4581463 52,26.4986807 C52.0474871,26.2973736 52.1386555,26.1097446 52.2666667,25.9498681 C52.4,25.4010554 53.8666667,25.5382586 54.4,25.5382586 C54.7591386,25.5296072 55.116509,25.4836394 55.4666667,25.4010554 C56,25.4010554 56,25.8126649 55.8666667,25.9498681 L55.6,26.3614776 C56.0723188,26.5105646 56.4603696,26.859964 56.6666667,27.3218997 L56.6666667,28.4195251 C56.8064219,28.7180913 56.9859257,28.9951619 57.2,29.2427441 C57.4256844,29.666023 57.5619895,30.1335605 57.6,30.6147757 C57.6,31.1635884 57.2,31.1635884 57.0666667,31.0263852 C56.9333333,30.8891821 56.6666667,30.6147757 56.4,30.6147757 C56.1333333,30.6147757 56,30.8891821 56,31.0263852 C56.2305153,31.4601087 56.4095753,31.9207511 56.5333333,32.3984169 C56.623729,32.8971953 56.623729,33.4088733 56.5333333,33.9076517 C56.5333333,34.4564644 56,34.3192612 56,34.0448549 C56,33.7704485 55.7333333,33.6332454 55.4666667,33.4960422 C55.2,33.3588391 54.8,33.9076517 54.8,34.182058 C54.6927962,34.5509762 54.7411788,34.9492711 54.9333333,35.2796834 C55.8666667,36.651715 60,33.9076517 61.8666667,35.4168865 C61.9564627,34.9642099 61.9564627,34.4975315 61.8666667,34.0448549 C61.6,33.0844327 60,32.6728232 59.2,31.4379947 C59.0116349,31.1957564 58.8753057,30.9151844 58.8,30.6147757 C58.7603824,29.2514473 59.1330948,27.9090925 59.8666667,26.7730871 C59.5698316,26.0732124 59.5698316,25.277711 59.8666667,24.5778364 C60.0253738,24.0906323 60.2497876,23.628778 60.5333333,23.2058047 C60.8,22.9313984 61.4666667,22.9313984 61.4666667,23.2058047 C61.4666667,23.2058047 60.6666667,24.1662269 60.9333333,24.5778364 C61.2,24.9894459 62.6666667,23.7546174 61.6,25.9498681 C61.2,26.9102902 60.8,27.1846966 60.2666667,27.0474934 C59.7149944,28.0462626 59.4818174,29.1979968 59.6,30.3403694 C59.6921257,30.7745923 59.9277324,31.1625042 60.2666667,31.4379947 C61.0666667,32.1240106 62.4,32.6728232 62.6666667,33.9076517 C62.7577885,34.7410335 62.666677,35.5848362 62.4,36.3773087 C62.6354751,37.1396164 62.813776,37.9193885 62.9333333,38.7097625 C62.9333333,38.9841689 63.2,39.3957784 63.4666667,39.3957784 C63.7333333,39.3957784 64,38.9841689 64.1333333,38.8469657 C64.2666667,38.7097625 64.6666667,38.5725594 64.6666667,39.121372 C64.7898107,39.5709542 64.8789657,40.029667 64.9333333,40.4934037 C64.8772298,42.1051311 64.5148511,43.6899405 63.8666667,45.1583113 C64.3448535,45.3097065 64.7953879,45.5415117 65.2,45.8443272 C65.7333333,46.2559367 65.4666667,46.530343 65.4666667,46.8047493 C65.5644813,46.829182 65.6556497,46.8760893 65.7333333,46.9419525 C65.7987118,47.0710103 65.8437188,47.2099502 65.8666667,47.353562 L66,47.2163588 Z M53.0666667,26.6358839 C53.0666667,26.6358839 53.7333333,27.4591029 54.1333333,27.1846966 C54.5333333,26.9102902 54.1333333,26.4986807 54.1333333,26.3614776 C54.1333333,26.2242744 53.3333333,26.2242744 53.0666667,26.4986807 L53.0666667,26.6358839 Z" id="Shape" fill="#FFFFFF"></path>
                <path d="M48.3968434,29.4985507 C49.2224179,29.7894497 50.1378996,29.6353863 50.8254111,29.0898551 C49.206366,29.3623188 48.5317639,28.8173913 48.9365251,28 C47.7222413,28.1362319 47.8571617,29.3623188 48.3968434,29.3623188 L48.3968434,29.4985507 Z M57.1666711,71.3217391 C57.7749863,70.9987872 58.360978,70.6346716 58.9206366,70.2318841 C59.4156258,69.7914703 59.7877582,69.2278458 60,68.5971014 C59.4129079,67.8215518 59.1688266,66.8357364 59.3253979,65.8724638 C59.3253979,65.8724638 59.055557,65.6 58.7857162,65.8724638 C58.1708922,66.139378 57.5400119,66.3668825 56.8968302,66.5536232 C56.8968302,66.5536232 56.6269894,67.915942 56.8968302,68.0521739 C57.1666711,68.1884058 57.9761936,68.3246377 57.8412732,68.7333333 C57.6857481,69.1703512 57.403702,69.550068 57.0317506,69.8231884 C56.610355,70.1407291 56.158336,70.4145768 55.6825464,70.6405797 C55.0230782,70.4630735 54.3357082,70.4168034 53.65874,70.5043478 C53.4574871,70.5511587 53.300339,70.7098343 53.2539787,70.9130435 C53.1644955,70.9000021 53.0736212,70.9000021 52.9841379,70.9130435 C52.885159,70.9373032 52.7929053,70.9838784 52.714297,71.0492754 C52.7763982,71.1644272 52.8700946,71.2590343 52.9841379,71.3217391 C53.0731669,71.3400888 53.1649497,71.3400888 53.2539787,71.3217391 C53.3384115,71.4722909 53.4886328,71.5734119 53.65874,71.5942029 C54.103486,71.6898578 54.5631983,71.6898578 55.0079443,71.5942029 L55.4127055,71.7304348 L55.1428647,72.1391304 C54.7940213,72.313761 54.4751609,72.5437322 54.1984217,72.8202899 C54.0553822,73.0157935 54.0059347,73.2654344 54.0635013,73.5014493 C53.9561301,73.5727846 53.864309,73.6654981 53.7936604,73.773913 C53.7522302,73.9069335 53.7522302,74.0495882 53.7936604,74.1826087 C53.8826895,74.2009583 53.9744723,74.2009583 54.0635013,74.1826087 C54.1644454,74.1640229 54.2580502,74.1167656 54.3333421,74.0463768 C54.6670851,74.1402457 55.0169911,73.9635921 55.1428647,73.6376812 C55.3566228,73.3406046 55.5375908,73.0208324 55.6825464,72.684058 L55.8174668,72.5478261 C55.9523872,72.5478261 56.0873077,72.5478261 55.9523872,72.9565217 C55.9098146,73.2729429 55.9098146,73.5937238 55.9523872,73.9101449 C56.0873077,74.5913043 56.6269894,74.5913043 56.6269894,74.5913043 C56.6088164,74.6811988 56.6088164,74.7738737 56.6269894,74.8637681 C56.7437604,74.9521977 56.8857868,75 57.0317506,75 C57.0660249,74.865966 57.0660249,74.7253384 57.0317506,74.5913043 C57.035505,74.5459728 57.035505,74.500404 57.0317506,74.4550725 C57.223253,74.345908 57.3300021,74.1303346 57.3015915,73.9101449 C57.2054869,73.5103809 57.0209796,73.1377793 56.7619098,72.8202899 L56.7619098,72.2753623 L57.1666711,72.4115942 C57.330111,72.6931911 57.5623871,72.927725 57.8412732,73.0927536 C58.0384366,73.2521451 58.3187119,73.2521451 58.5158753,73.0927536 C58.5576084,73.1413224 58.6026945,73.1868468 58.6507957,73.2289855 C58.7835395,73.2635929 58.9228133,73.2635929 59.055557,73.2289855 C59.0645743,73.1383924 59.0645743,73.0471148 59.055557,72.9565217 C58.9934559,72.8413699 58.8997595,72.7467628 58.7857162,72.684058 C58.8059054,72.4920257 58.758108,72.2989775 58.6507957,72.1391304 C58.2057356,71.748599 57.705537,71.4271967 57.1666711,71.1855072 L57.1666711,71.3217391 Z" id="Shape" fill="#FFFFFF"></path>
                <path d="M65.7209709,73.0578035 C65.6567552,72.9405415 65.5598684,72.8442007 65.4419418,72.7803468 C65.4419418,72.7803468 65.7209709,72.3641618 65.1629127,71.9479769 C64.7395431,71.6417953 64.2681223,71.4074133 63.7677671,71.2543353 C64.4639787,69.7268013 64.843569,68.0754523 64.8838836,66.3988439 C64.8269955,65.9299524 64.7337074,65.4661404 64.6048545,65.0115607 C64.6048545,64.5953757 64.1863108,64.5953757 64.0467962,64.8728324 C63.9072817,65.150289 63.7677671,65.2890173 63.3492235,65.4277457 C62.9306798,65.566474 62.7911652,65.0115607 62.7911652,64.734104 L62.3726216,62.9306358 C62.9469392,62.7872169 63.4750804,62.5007633 63.9072817,62.0982659 C64.6021143,61.4458559 64.7201727,60.3893184 64.1863108,59.6011561 C63.9072817,59.0462428 63.488738,58.7687861 61.3960197,57.9364162 C60.7102755,57.7173682 60.08801,57.3365936 59.5823305,56.8265896 C59.422062,56.6580353 59.2816408,56.4718622 59.1637868,56.2716763 C58.9820246,55.8386836 59.0937363,55.3388141 59.4428159,55.0231214 L60.0008742,54.7456647 C60.9496712,55.0733784 61.9818828,55.0733784 62.9306798,54.7456647 C63.6121054,54.4862295 64.2663038,54.1609737 64.8838836,53.7745665 C65.4419418,53.4971098 65.3024272,52.8034682 64.8838836,52.8034682 C64.8838836,52.8034682 63.0701944,53.6358382 62.6516507,53.3583815 C62.233107,53.0809249 63.0701944,51.9710983 60.977476,52.9421965 C60.1403887,53.2196532 59.5823305,53.6358382 59.5823305,54.1907514 C58.7986741,54.4634847 58.251275,55.1710932 58.1871849,55.9942197 C58.2460619,56.3466984 58.3896436,56.6798343 58.6057286,56.9653179 C59.4156214,57.8688823 60.4883961,58.4992223 61.6750488,58.7687861 C62.7911652,59.1849711 63.3492235,59.4624277 63.488738,60.1560694 C63.7677671,61.265896 63.2097089,61.8208092 62.0935925,61.9595376 C61.9779712,61.7578854 61.8373581,61.5714578 61.6750488,61.4046243 C60.0008742,59.7398844 55.3968939,62.5144509 54.420292,61.1271676 C54.2078808,60.849827 54.1082637,60.503132 54.1412629,60.1560694 C54.1412629,59.7398844 54.5598065,59.4624277 54.8388356,59.4624277 C55.1178647,59.4624277 55.2573793,59.8786127 55.3968939,60.017341 C55.5364084,60.1560694 55.9549521,60.2947977 56.0944666,59.8786127 C56.189053,59.3742898 56.189053,58.8569241 56.0944666,58.3526012 C55.9208422,57.8631369 55.6865098,57.3971133 55.3968939,56.9653179 L55.8154375,56.4104046 L56.5130103,56.8265896 C56.5130103,56.8265896 57.2105831,56.9653179 57.2105831,56.5491329 C57.1708105,56.0625685 57.0281863,55.5898339 56.7920394,55.1618497 C56.5680408,54.9115154 56.3802153,54.6313649 56.2339812,54.3294798 L56.2339812,52.9421965 C55.9881349,52.4435194 55.5249387,52.0852859 54.9783502,51.9710983 L55.2573793,51.5549133 C55.3968939,51.5549133 55.3968939,51 54.9783502,51 C54.6119595,51.083502 54.2380218,51.1299808 53.8622338,51.1387283 C53.3041755,51.1387283 51.7695154,51.1387283 51.4904863,51.5549133 C51.4529028,51.7379967 51.4529028,51.9267431 51.4904863,52.1098266 C50.9184679,52.074465 50.3458765,52.1693591 49.8163117,52.3872832 C49.6767971,52.3872832 49.397768,52.6647399 49.8163117,53.0809249 C49.5984245,53.4658824 49.7209042,53.9530403 50.0953408,54.1907514 C50.9586599,53.6951229 52.0223128,53.6951229 52.8856319,54.1907514 C53.164661,54.4682081 52.8856319,55.0231214 52.7461173,55.300578 C51.9732855,55.064988 51.1472017,55.064988 50.3743699,55.300578 L50.5138845,56.132948 C51.1516653,55.9479769 51.8293074,55.9479769 52.4670882,56.132948 C52.2524674,56.5468533 51.9695081,56.9220062 51.6300009,57.2427746 L50.2348553,58.3526012 C49.6881628,58.8344975 49.2178087,59.3957416 48.8397098,60.017341 C48.2501903,59.8698306 47.6859753,59.6360659 47.1655351,59.3236994 C46.6339874,59.0449708 46.1605423,58.6683492 45.7703896,58.2138728 C45.7810438,57.6118679 45.5841048,57.0243804 45.2123314,56.5491329 C45.0227723,56.3796101 44.7553069,56.3264185 44.5147586,56.4104046 C44.4417044,56.300003 44.3467568,56.2055905 44.2357295,56.132948 C44.143669,56.1142621 44.0487609,56.1142621 43.9567004,56.132948 C43.9379086,56.2244897 43.9379086,56.3188629 43.9567004,56.4104046 C43.9963604,56.4629866 44.043335,56.5096965 44.0962149,56.5491329 C43.9329827,56.751861 43.9329827,57.0400465 44.0962149,57.2427746 C44.2526081,57.6549641 44.4897123,58.0321929 44.7937877,58.3526012 C44.7937877,58.3526012 44.9333023,58.4913295 44.7937877,58.6300578 L44.5147586,58.6300578 C44.1672921,58.4333047 43.7905372,58.2928178 43.3986422,58.2138728 C43.089264,58.1407476 42.7649336,58.2482484 42.5615548,58.4913295 C42.4690246,58.4780492 42.375056,58.4780492 42.2825257,58.4913295 C42.1645992,58.5551833 42.0677124,58.6515241 42.0034966,58.7687861 C41.9988345,58.8149127 41.9988345,58.8613879 42.0034966,58.9075145 C42.1377279,58.9615077 42.2878091,58.9615077 42.4220403,58.9075145 C42.4893377,59.2356924 42.7828523,59.4691808 43.1196131,59.4624277 C43.4906155,59.5014775 43.864727,59.5014775 44.2357295,59.4624277 L44.6542732,59.4624277 C44.6542732,59.4624277 44.6542732,59.7398844 44.3752441,59.8786127 C44.0799011,59.9822003 43.7987022,60.1220074 43.5381567,60.2947977 C42.9800985,60.849711 43.2591276,61.265896 43.2591276,61.265896 C43.141201,61.3297498 43.0443142,61.4260906 42.9800985,61.5433526 C42.9613067,61.6348943 42.9613067,61.7292675 42.9800985,61.8208092 C43.1951251,61.8032899 43.3950459,61.7038928 43.5381567,61.5433526 C43.7740302,61.6695709 44.0668208,61.6113428 44.2357295,61.4046243 C44.5036208,61.0813169 44.6944107,60.7018874 44.7937877,60.2947977 L45.2123314,60.2947977 C45.2123314,60.2947977 45.3518459,60.2947977 45.2123314,60.5722543 C45.0573911,60.9205903 45.0088741,61.3065388 45.0728168,61.6820809 C45.1207556,61.8890139 45.2832547,62.0505972 45.4913605,62.0982659 C45.4820361,62.1905191 45.4820361,62.2834694 45.4913605,62.3757225 C45.4757497,62.4675568 45.4757497,62.561345 45.4913605,62.6531792 C45.5971204,62.5743062 45.6910696,62.4808865 45.7703896,62.3757225 C45.8373624,62.2948957 45.8850599,62.2000383 45.9099042,62.0982659 C46.0957349,62.0148516 46.2445608,61.8668644 46.3284478,61.6820809 C46.4307688,61.2252497 46.4307688,60.7516289 46.3284478,60.2947977 C46.9921932,60.948917 47.7433185,61.5090863 48.5606807,61.9595376 C48.6430994,62.7162424 48.9326275,63.4359836 49.397768,64.0404624 C49.8130529,64.4683398 50.2819464,64.8413406 50.7929136,65.150289 C50.9324281,65.4277457 51.2114572,65.4277457 51.0719427,66.1213873 C50.9248142,66.774811 50.6394589,67.3895967 50.2348553,67.9248555 C49.6604578,68.5629817 49.0036934,69.1227502 48.2816516,69.5895954 C47.5682428,69.3304698 46.8050227,69.2356049 46.0494187,69.3121387 C45.8019893,69.3417811 45.5892587,69.5004299 45.4913605,69.7283237 C45.3988302,69.7150434 45.3048616,69.7150434 45.2123314,69.7283237 C45.1099822,69.7530279 45.0145872,69.8004566 44.9333023,69.867052 C44.997518,69.984314 45.0944048,70.0806548 45.2123314,70.1445087 C45.3043919,70.1631945 45.3993,70.1631945 45.4913605,70.1445087 C45.5392993,70.3514416 45.7017984,70.513025 45.9099042,70.5606936 C46.369794,70.6581014 46.8451599,70.6581014 47.3050497,70.5606936 L47.7235934,70.5606936 L47.5840788,70.9768786 C47.1752639,71.1436578 46.7978695,71.3782 46.4679624,71.6705202 C46.3184311,71.9280564 46.3184311,72.245354 46.4679624,72.5028902 C46.3591184,72.5781626 46.2646323,72.6721163 46.1889333,72.7803468 C46.1460923,72.9158049 46.1460923,73.0610738 46.1889333,73.1965318 C46.2809938,73.2152177 46.3759018,73.2152177 46.4679624,73.1965318 C46.5918495,73.1409223 46.6910668,73.0422642 46.7469915,72.9190751 C47.0568754,73.0361045 47.4067872,72.9201246 47.5840788,72.6416185 C47.7568138,72.3330961 47.8970711,72.0076733 48.0026225,71.6705202 C48.0026225,71.3930636 48.142137,71.3930636 48.2816516,71.3930636 C48.4211661,71.3930636 48.4211661,71.3930636 48.2816516,71.8092486 C48.2376294,72.1314681 48.2376294,72.4581273 48.2816516,72.7803468 C48.5606807,73.6127168 48.9792244,73.4739884 48.9792244,73.4739884 C49.0040686,73.5757609 49.0517661,73.6706182 49.1187389,73.7514451 C49.1829546,73.8687071 49.2798414,73.9650479 49.397768,74.0289017 C49.4992684,73.8087021 49.4992684,73.5554598 49.397768,73.3352601 C49.5957911,73.2240953 49.7061751,73.0045714 49.6767971,72.7803468 C49.5774201,72.3732571 49.3866302,71.9938277 49.1187389,71.6705202 L49.1187389,71.2543353 L49.5372826,71.3930636 C49.7062877,71.6798208 49.946473,71.9186524 50.2348553,72.0867052 C50.4387323,72.2490175 50.7285511,72.2490175 50.9324281,72.0867052 C51.0199296,72.1431753 51.1135243,72.1897089 51.2114572,72.2254335 C51.3038119,72.2409563 51.3981317,72.2409563 51.4904863,72.2254335 C51.4998107,72.1331804 51.4998107,72.0402301 51.4904863,71.9479769 C51.4345617,71.8247879 51.3353444,71.7261297 51.2114572,71.6705202 C51.2323339,71.474969 51.1829089,71.2783831 51.0719427,71.1156069 C50.7628067,70.7633018 50.382514,70.4796897 49.9558262,70.283237 C50.7218465,69.8182945 51.386069,69.2049923 51.90903,68.4797688 C52.6066028,67.6473988 53.0251464,66.3988439 53.3041755,66.1213873 C54.0017483,65.4277457 54.9783502,65.7052023 56.0944666,65.4277457 C60.0008742,64.4566474 59.1637868,63.4855491 60.2799033,63.7630058 C60.977476,63.7630058 60.8379615,65.4277457 61.3960197,66.3988439 C61.9540779,67.3699422 62.7911652,66.9537572 62.9306798,67.7861272 C63.0444952,68.7201278 62.9492111,69.6675987 62.6516507,70.5606936 C61.9394312,70.2967132 61.175071,70.2017066 60.4194178,70.283237 C60.0008742,70.283237 60.0008742,70.699422 60.0008742,70.699422 C59.9083439,70.6861416 59.8143753,70.6861416 59.721845,70.699422 C59.6194958,70.7241262 59.5241009,70.7715549 59.4428159,70.8381503 C59.5070317,70.9554123 59.6039185,71.0517531 59.721845,71.1156069 C59.8139056,71.1342928 59.9088136,71.1342928 60.0008742,71.1156069 C60.048813,71.3225399 60.2113121,71.4841233 60.4194178,71.5317919 C60.8793077,71.6291997 61.3546735,71.6291997 61.8145634,71.5317919 L62.233107,71.5317919 C62.233107,71.5317919 62.233107,71.8092486 61.9540779,71.9479769 C61.5933562,72.1258075 61.2636384,72.359993 60.977476,72.6416185 C60.7824966,72.8733354 60.7290988,73.1919166 60.8379615,73.4739884 C60.7768057,73.5584429 60.7297,73.6521234 60.6984469,73.7514451 C60.6796552,73.8429868 60.6796552,73.93736 60.6984469,74.0289017 C60.7905075,74.0475876 60.8854155,74.0475876 60.977476,74.0289017 C61.0818573,74.0099754 61.1786495,73.961852 61.2565051,73.8901734 C61.523534,73.940735 61.7957799,73.8324503 61.9540779,73.6127168 C62.1751146,73.3101963 62.3622447,72.9845643 62.5121361,72.6416185 C62.5121361,72.3641618 62.5121361,72.3641618 62.7911652,72.3641618 C63.0701944,72.3641618 62.9306798,72.3641618 62.7911652,72.7803468 C62.747143,73.1025663 62.747143,73.4292256 62.7911652,73.7514451 C63.0701944,74.583815 63.488738,74.4450867 63.488738,74.4450867 C63.4699462,74.5366284 63.4699462,74.6310016 63.488738,74.7225434 C63.5886951,74.8635702 63.7379202,74.962493 63.9072817,75 C63.942723,74.8635098 63.942723,74.7203052 63.9072817,74.583815 C63.9228925,74.4919808 63.9228925,74.3981926 63.9072817,74.3063584 C64.1053048,74.1951935 64.2156888,73.9756697 64.1863108,73.7514451 C64.0869338,73.3443554 63.8961438,72.9649259 63.6282526,72.6416185 L63.6282526,72.3641618 L64.0467962,72.5028902 C64.2540028,72.8083827 64.544331,73.0489594 64.8838836,73.1965318 C65.0565474,73.2956575 65.269278,73.2956575 65.4419418,73.1965318 C65.5294432,73.2530019 65.6230379,73.2995355 65.7209709,73.3352601 C65.8133256,73.3507829 65.9076453,73.3507829 66,73.3352601 C65.92068,73.2300962 65.8267308,73.1366764 65.7209709,73.0578035 L65.7209709,73.0578035 Z M53.164661,53.0809249 C52.8856319,53.3583815 52.1880591,52.3872832 52.1880591,52.3872832 C52.4670882,52.1098266 52.8856319,51.8323699 53.164661,52.2485549 C53.4436901,52.6647399 53.5832047,52.8034682 53.164661,53.0809249 Z" id="Shape" fill="#FFFFFF"></path>
                <path d="M48.4213654,55.841798 C49.2999864,56.1691389 50.2597058,55.9821891 51,55.3394894 C49.2809102,55.6743618 48.5646228,55.0046171 48.9943953,54 C47.705078,54.1674362 47.8483354,55.6743618 48.4213654,55.841798 L48.4213654,55.841798 Z" id="Path" fill="#FFFFFF"></path>
                <path d="M85.0760856,33.8864415 C85.0760856,33.3374793 84.6587637,33.0629982 82.8503689,33.4747198 C80.6246522,33.7492009 79.5117939,32.9257576 80.068223,32.1023143 C79.5257678,31.8699243 78.8924715,32.0437143 78.549556,32.5190689 C78.2066404,32.9944234 78.2476441,33.6416783 78.6478842,34.071209 C79.0481243,34.5007397 79.6984259,34.5953814 80.2073303,34.2981632 C82.0157251,34.2981632 82.9894762,33.6119604 85.0760856,33.8864415 Z M87.4409096,54.3352844 L86.188944,54.0608033 C85.0134084,55.3249035 83.5285507,56.2700208 81.8766179,56.8056144 C79.5117939,57.6290577 78.5380428,58.3152605 77.9816136,59.2759444 C77.6129872,59.859874 77.375792,60.515108 77.2860772,61.1973122 C77.2046118,61.8352466 77.2046118,62.4807455 77.2860772,63.11868 C77.2860772,63.3839655 77.5040588,63.5990219 77.7729527,63.5990219 C78.0418466,63.5990219 78.2598282,63.3839655 78.2598282,63.11868 C78.2598282,62.8441988 78.5380428,62.5697177 78.9553647,62.4324772 C79.3726866,62.2952366 79.5117939,62.8441988 79.5117939,62.8441988 C79.2329508,63.8394933 78.760481,64.7717524 78.1207209,65.58901 C77.4149508,66.362291 76.6214745,67.0530219 75.7558969,67.6476183 C75.1364547,67.3438569 74.4827372,67.1135194 73.8083948,66.9614155 C73.3910729,66.9614155 72.8346438,66.9614155 72.6955365,67.2358966 C72.4385064,67.2453422 72.192728,67.3423343 72,67.5103778 C72.1471462,67.6918891 72.3386072,67.8335579 72.5564292,67.9220994 C72.5564292,68.3338211 72.9737511,68.4710616 73.5301802,68.6083022 C73.9005376,68.6376272 74.2726812,68.6376272 74.6430386,68.6083022 C74.7145402,68.5610716 74.8041701,68.5491402 74.8858027,68.575986 C74.9674353,68.6028317 75.031883,68.665433 75.0603605,68.7455428 C75.1148929,68.8363301 75.1118387,68.9499227 75.0525042,69.0377301 C74.9931698,69.1255374 74.8880635,69.1720084 74.7821459,69.1572644 C73.3910729,69.294505 72.9737511,69.9807078 72.9737511,70.52967 C72.7301419,70.787306 72.6266595,71.1446342 72.6955365,71.4903539 C72.9965232,71.4903539 73.2893908,71.3940414 73.5301802,71.2158728 C74.364824,71.2158728 74.9212532,70.3924294 75.1994678,69.9807078 C75.1994678,69.7062267 75.4776823,69.7062267 75.6167896,69.7062267 C75.7558969,69.7062267 75.7558969,69.9807078 75.6167896,70.2551889 C75.5105176,70.6113284 75.4635378,70.9821237 75.4776823,71.3531133 C75.4740913,71.7488796 75.6866827,72.115922 76.0341115,72.3137972 L76.4514334,73 C76.5571258,72.7869678 76.6050529,72.5505478 76.5905407,72.3137972 C76.9326752,72.0578866 77.0950764,71.6306283 77.0078626,71.2158728 C76.9106867,70.8794545 76.7704497,70.5566259 76.5905407,70.2551889 L76.5905407,69.8434672 C76.5905407,69.8434672 77.0078626,69.8434672 77.1469699,70.1179483 C77.2560061,70.3632233 77.3962401,70.5938102 77.5642917,70.8041511 C77.8425063,71.0786322 78.3989355,71.3531133 78.6771501,71.2158728 C78.9030408,71.2891881 79.1467959,71.2891881 79.3726866,71.2158728 C79.3347304,71.0105129 79.2382208,70.8200839 79.094472,70.6669105 C79.2532588,70.2801629 79.1408379,69.8365135 78.8162574,69.5689861 C78.3901329,69.1988281 77.9235693,68.8766163 77.4251845,68.6083022 C78.5305203,68.1249179 79.5244753,67.4244774 80.3464376,66.5496939 C80.7226495,66.0320719 81.0486695,65.4806804 81.3201887,64.9028072 C81.8766179,65.0400477 81.8766179,65.4517694 82.0157251,65.8634911 C82.1548324,66.2752127 82.433047,66.1379722 82.5721543,65.7262505 C82.7304323,65.2841245 82.8241102,64.8220205 82.8503689,64.353845 C82.8819966,63.6444479 82.7387981,62.9380634 82.433047,62.2952366 C82.433047,62.1579961 82.5721543,61.883515 82.8503689,62.0207555 L83.4067981,62.5697177 C83.5482172,62.7334338 83.7735233,62.8005797 83.9831629,62.7414865 C84.1928025,62.6823932 84.3481443,62.5079502 84.3805491,62.2952366 C84.4346502,61.839325 84.4346502,61.3787427 84.3805491,60.9228311 C84.2226084,60.4432915 83.9338317,60.0159394 83.5459054,59.6876661 C83.6850127,58.7269822 84.3805491,58.5897416 85.9107294,57.4918172 C86.5764577,57.0141832 87.183367,56.461477 87.7191242,55.8449305 C87.919697,55.5651388 88.0178114,55.2263466 87.9973388,54.8842466 C87.9973388,54.6097655 87.7191242,54.4725249 87.4409096,54.4725249 L87.4409096,54.3352844 Z" id="Shape" fill="#FFFFFF" fill-rule="nonzero"></path>
                <path d="M95.8649125,52.5504501 C95.5461426,53.7810544 94.613204,54.761446 93.3961284,55.1448064 C93.3961284,57.4660725 92.0245817,58.5584331 92.0245817,59.3777035 C92.0245817,60.0604288 92.5732004,60.1969739 93.1218191,61.0162443 C93.7303844,61.943586 93.9745168,63.0616037 93.8075924,64.1567808 C93.7292799,64.732317 93.5431872,65.2881139 93.2589738,65.7953216 C92.8475098,66.3415019 92.2988911,66.2049568 92.2988911,65.7953216 C92.2988911,64.566416 91.4759631,64.9760512 91.4759631,64.9760512 C91.426622,65.9821225 91.145024,66.963335 90.653035,67.8434976 C90.120734,68.6996899 89.4748553,69.4804853 88.7328697,70.1647637 C89.2451345,70.2644842 89.7493818,70.401395 90.241571,70.5743989 C90.6374136,70.7331297 90.9049047,71.1059528 90.9273444,71.5302144 C91.1709276,71.6396831 91.3660056,71.833894 91.4759631,72.0763947 C91.2504026,72.128802 91.0157502,72.128802 90.7901897,72.0763947 C90.7901897,72.0763947 90.3787257,72.4860299 89.6929524,72.0763947 C89.4376613,71.930304 89.2063823,71.7461031 89.007179,71.5302144 C88.8700243,71.2571243 88.595715,71.2571243 88.4585603,71.3936693 C88.3214057,71.5302144 88.4585603,71.6667595 88.4585603,71.8033045 C88.716639,72.0998844 88.9462338,72.4198885 89.1443337,72.75912 C89.2814884,73.0322101 89.418643,73.5783904 89.1443337,73.8514805 C89.1924851,74.0765312 89.1924851,74.3091552 89.1443337,74.5342059 L88.595715,74.1245707 C88.1865437,74.0307338 87.8670428,73.7126529 87.772787,73.3053003 C87.7107163,72.8979956 87.7107163,72.4836994 87.772787,72.0763947 C87.772787,71.8033045 87.772787,71.6667595 87.4984777,71.6667595 C87.2241683,71.6667595 87.2241683,71.6667595 87.2241683,71.9398496 C87.2241683,72.6225749 86.6755496,73.5783904 85.8526216,73.7149355 C85.6760257,73.9234609 85.4347667,74.0675729 85.1668483,74.1245707 C85.0600868,73.8618223 85.0600868,73.5680486 85.1668483,73.3053003 C84.8925389,72.6225749 85.1668483,71.9398496 86.2640856,71.3936693 C86.3685165,71.4083386 86.4721474,71.3621031 86.530649,71.2747407 C86.5891506,71.1873784 86.592162,71.0743614 86.538395,70.9840341 L86.126931,70.9840341 C85.7637579,71.0481115 85.3975354,71.0936859 85.0296936,71.1205792 C84.4810749,71.1205792 84.0696109,71.1205792 83.9324562,70.710944 C83.6958539,70.7251889 83.4595818,70.6781445 83.2466829,70.5743989 C83.3808971,70.3830059 83.573164,70.2394467 83.7953016,70.1647637 C83.7953016,69.7551285 84.3439203,69.6185835 84.7553843,69.4820384 C85.5352795,69.4329146 86.318282,69.4787689 87.0870136,69.6185835 C87.5570647,69.1186839 87.9709739,68.5692579 88.3214057,67.9800427 C88.812514,67.15576 89.0508804,66.2065322 89.007179,65.2491413 C88.9089127,65.1103339 88.7622117,65.0129679 88.595715,64.9760512 C88.184251,64.9760512 88.0470963,65.2491413 87.9099417,65.3856864 C87.8010953,65.4286441 87.6790208,65.4234012 87.5742949,65.3712709 C87.4695689,65.3191407 87.3921112,65.2250609 87.361323,65.1125963 C87.3443207,64.6984118 87.3905656,64.2840574 87.4984777,63.8836907 C87.6716042,63.4878401 87.9027061,63.1197204 88.184251,62.7913301 C88.0470963,62.51824 87.772787,62.3816949 87.4984777,62.3816949 C87.273169,62.4775094 87.1163198,62.6857121 87.0870136,62.9278752 C87.0870136,63.1541105 86.9027949,63.3375104 86.6755496,63.3375104 C86.4483043,63.3375104 86.2640856,63.1541105 86.2640856,62.9278752 C86.1710992,62.4314891 86.1710992,61.9222655 86.2640856,61.4258795 C86.3401046,60.087963 86.817919,58.8035984 87.6356323,57.7391627 C88.184251,57.0564373 89.5557977,55.4178965 89.5557977,54.4620811 C89.5557977,53.5062656 86.538395,53.5062656 84.3439203,52.0042698 C83.2646924,51.2464494 82.4878109,50.1346457 82.1494455,48.8637333 C81.571223,49.5687257 80.87526,50.1692128 80.0921255,50.6388192 C79.2182676,51.062682 78.2976636,51.3834612 77.3490321,51.5946346 C77.649639,52.0102616 77.8811836,52.4712925 78.0348055,52.9600853 C78.2487694,53.3585392 78.1942521,53.8470143 77.8976508,54.1889909 C77.8976508,54.4844338 77.8013986,54.771907 77.6233414,55.0082613 C77.4419437,54.8638254 77.3003636,54.6758909 77.2118774,54.4620811 C76.8004134,54.4620811 76.6632588,54.1889909 76.5261041,53.6428106 C76.4957632,53.3249214 76.4957632,53.0048844 76.5261041,52.6869952 C76.5261041,52.413905 76.3889494,52.27736 76.1146401,52.27736 C75.8403307,52.27736 75.9774854,52.27736 75.8403307,52.5504501 C75.872906,52.9138482 75.872906,53.2794126 75.8403307,53.6428106 C75.7031761,53.9159008 75.4288667,54.4620811 75.0174027,54.4620811 C74.9241795,54.6731718 74.7833881,54.8600594 74.6059387,55.0082613 C74.5296817,54.7404474 74.5296817,54.4568048 74.6059387,54.1889909 C74.3316294,54.1889909 74.1944747,53.7793557 74.6059387,53.0966304 C74.7314305,52.7894945 74.9180477,52.5108129 75.1545574,52.27736 C75.2917121,52.0042698 75.4288667,51.8677248 75.1545574,51.7311797 C74.8802481,51.5946346 75.0174027,51.7311797 74.8802481,51.7311797 C74.4687841,52.0042698 73.3715467,52.5504501 72.6857733,52.0042698 C72.4480684,52.0462077 72.203218,51.9974553 72,51.8677248 C72.1266529,51.5861493 72.3820373,51.3827499 72.6857733,51.3215445 C72.9600827,50.9119093 73.5087014,50.6388192 74.8802481,50.7753642 L75.2917121,50.6388192 C75.3454791,50.5484919 75.3424677,50.4354749 75.2839661,50.3481126 C75.2254645,50.2607502 75.1218336,50.2145147 75.0174027,50.229184 C74.6822522,50.0748367 74.3610432,49.8921045 74.05732,49.6830037 C73.645856,49.4099136 73.3715467,49.0002784 73.645856,48.5906432 C73.4644583,48.4462073 73.3228781,48.2582728 73.234392,48.0444629 C73.4983134,47.938176 73.7933986,47.938176 74.05732,48.0444629 C74.4718161,47.9588555 74.898807,48.1182654 75.1545574,48.4540981 C75.6016129,48.8760644 76.0143694,49.3326444 76.3889494,49.8195488 C77.5450771,49.6092305 78.6028057,49.034852 79.4063522,48.181008 C80.1090567,47.1345803 80.4464287,45.8870538 80.3664348,44.6308362 C80.3953159,44.4101404 80.286799,44.1940714 80.0921255,44.084656 L79.4063522,44.3577461 C79.2686705,44.3656797 79.1361525,44.3044158 79.0534052,44.1945765 C78.9706579,44.0847371 78.948687,43.9409314 78.9948881,43.8115658 C79.100699,43.4138876 79.2874304,43.0420847 79.5435068,42.7192053 C79.9353238,42.2804606 80.3990903,41.9110964 80.9150535,41.6268448 C80.3398413,41.2044386 79.7902606,40.7484903 79.2691975,40.2613941 C78.5790244,39.4434324 78.0235072,38.5216855 77.6233414,37.5304928 L77.3490321,38.4863082 C77.0747228,39.1690336 76.8004134,39.1690336 76.5261041,39.3055786 C76.3434636,39.506914 76.1047212,39.6495228 75.8403307,39.7152138 C75.782261,39.4913103 75.782261,39.2563921 75.8403307,39.0324885 C75.5660214,38.7593984 75.5660214,38.3497632 75.8403307,37.940128 C75.9343228,37.689383 76.073793,37.4579658 76.2517948,37.2574026 C76.5261041,36.9843125 76.5261041,36.8477674 76.2517948,36.7112224 C75.9774854,36.5746773 76.1146401,36.7112224 75.9774854,36.7112224 C75.742192,37.0205732 75.4652893,37.2962452 75.1545574,37.5304928 C74.808913,37.7012182 74.4029644,37.7012182 74.05732,37.5304928 C73.8013556,37.6521105 73.5161403,37.6994351 73.234392,37.6670378 C73.234392,37.3939477 73.645856,36.9843125 73.645856,36.9843125 C73.645856,36.7112224 73.7830107,36.5746773 74.4687841,36.1650421 C74.810038,35.9951408 75.1846045,35.9019154 75.5660214,35.891952 C75.8403307,35.891952 75.9774854,35.891952 75.9774854,35.6188618 C75.9774854,35.3457717 75.9774854,35.3457717 75.7031761,35.3457717 C74.8862067,35.4685443 74.0915342,35.0164641 73.7830107,34.2534112 C73.5829941,34.1279882 73.4364856,33.9335118 73.3715467,33.7072309 C73.6745921,33.5604445 74.028584,33.5604445 74.3316294,33.7072309 C74.8802481,33.4341408 75.5660214,33.7072309 76.2517948,34.6630464 C76.3275432,34.8138699 76.5117619,34.8750032 76.6632588,34.7995914 C76.8147556,34.7241797 76.8761619,34.5407798 76.8004134,34.3899562 L76.3889494,33.2975957 C76.3889494,32.7514154 76.3889494,32.4783253 76.6632588,32.2052352 C76.6489502,31.9696844 76.6962046,31.7344625 76.8004134,31.5225098 C77.0439967,31.6319785 77.2390747,31.8261895 77.3490321,32.0686901 C77.7604961,32.0686901 78.0348055,32.6148704 78.0348055,33.0245056 C78.1641229,33.6552131 78.1641229,34.305429 78.0348055,34.9361365 C78.3294811,35.7138701 78.7985759,36.4143849 79.4063522,36.9843125 C80.4002186,37.8939745 81.5063443,38.6739978 82.6980642,39.3055786 L82.9723736,39.0324885 C83.112076,38.8769906 83.112076,38.6418061 82.9723736,38.4863082 C82.9723736,38.2132181 82.4237549,38.2132181 82.2866002,38.2132181 C82.1716734,38.1373231 82.1025815,38.0091546 82.1025815,37.8718554 C82.1025815,37.7345563 82.1716734,37.6063877 82.2866002,37.5304928 C82.7022987,37.258579 83.1687599,37.0728239 83.6581469,36.9843125 C84.2892446,36.8335493 84.9472146,36.8335493 85.5783123,36.9843125 C85.5783123,36.9843125 85.9897763,36.4381322 85.7154669,36.3015872 C84.9520087,35.9189388 84.0758912,35.8220251 83.2466829,36.028497 C82.6980642,35.2092266 83.2466829,34.9361365 84.0696109,34.9361365 C84.9115176,34.9107973 85.7502516,35.049965 86.538395,35.3457717 C86.8454465,35.0277068 86.9792299,34.5815521 86.8975688,34.1479621 C86.8159077,33.714372 86.5288641,33.3467718 86.126931,33.1610506 C85.1378379,32.6509133 83.9614666,32.6509133 82.9723736,33.1610506 C82.5975351,33.0913001 82.2859528,32.8328022 82.1494455,32.4783253 C81.9785547,32.1408489 81.9301001,31.7549357 82.0122909,31.3859648 C81.6008269,31.1128746 81.6008269,30.2936042 84.3439203,30.4301493 C84.1610226,29.9991613 84.1132149,29.5232086 84.2067656,29.0646986 C84.4810749,28.2454282 87.361323,28.6550634 88.0470963,28.5185184 L88.7328697,28.3819733 C88.960115,28.3819733 89.1443337,28.5653732 89.1443337,28.7916085 C89.0002135,29.0928367 88.907508,29.4158636 88.8700243,29.747424 C89.6765257,29.9896246 90.3925836,30.4648748 90.9273444,31.1128746 C91.3055694,31.7365705 91.5398095,32.4361675 91.6131177,33.1610506 C91.6210868,33.2981204 91.5595493,33.4300494 91.4492196,33.5124289 C91.3388899,33.5948084 91.1944422,33.6166816 91.0644991,33.5706858 C91.0644991,33.4341408 90.653035,33.1610506 90.3787257,33.1610506 C90.1044164,33.1610506 89.9672617,33.5706858 89.9672617,33.7072309 C90.7764879,34.2345318 91.3243997,35.077541 91.4759631,36.028497 C91.5532487,36.5262062 91.5532487,37.0327836 91.4759631,37.5304928 C91.4640261,37.6862291 91.364171,37.8216547 91.2185057,37.8796618 C91.0728404,37.937669 90.9067175,37.9081617 90.7901897,37.8035829 C90.7901897,37.5304928 90.5158804,37.2574026 90.241571,37.2574026 C89.9672617,37.2574026 89.830107,37.2574026 89.6929524,37.6670378 C89.983072,38.2618475 90.1242471,38.9177364 90.1044164,39.5786688 C90.181702,40.0763779 90.181702,40.5829554 90.1044164,41.0806645 C89.986909,41.263898 89.7460931,41.3238343 89.5557977,41.2172096 C89.418643,41.0806645 89.2814884,40.6710293 89.007179,40.6710293 C88.7328697,40.6710293 88.4585603,40.9441194 88.3214057,41.2172096 C88.8414587,41.7880045 89.1761134,42.5019343 89.2814884,43.2653856 C89.3452951,43.7183194 89.3452951,44.1779024 89.2814884,44.6308362 C89.2814884,45.1770165 88.7328697,45.1770165 88.595715,44.9039264 C88.4585603,44.6308362 88.4585603,44.3577461 88.0470963,44.221201 C87.8357069,44.2384447 87.6391678,44.3362775 87.4984777,44.4942912 C87.4140732,45.1341846 87.4607294,45.7844683 87.6356323,46.4059221 C87.9351122,47.5496101 88.6739646,48.530368 89.6929524,49.1368234 C91.323195,50.2332827 92.5696628,51.8083063 93.2589738,53.6428106 C94.006501,53.4544718 94.585479,52.865792 94.7588668,52.1177843 C94.9322547,51.3697767 94.6709374,50.5880444 94.0819018,50.0926389 C92.7103551,48.317553 91.7502724,47.7713728 91.2016537,45.5866517 C90.8699169,44.2325917 91.2289779,42.8027311 92.1617364,41.7633898 C91.9983576,41.5196331 91.903631,41.2367164 91.8874271,40.9441194 C91.8369475,40.176738 92.0287721,39.4128502 92.4360458,38.7593984 C93.0341663,37.6959397 93.9430302,36.8387377 95.0419845,36.3015872 C95.3057353,36.544073 95.4115556,36.9127977 95.3162938,37.2574026 C94.9048298,37.940128 93.5332831,39.0324885 93.3961284,39.4421237 C93.2589738,39.8517589 94.0819018,40.124849 94.2190565,39.988304 L95.3162938,38.6228533 C95.4251402,38.5798956 95.5472146,38.5851385 95.6519406,38.6372688 C95.7566665,38.689399 95.8341242,38.7834788 95.8649125,38.8959434 C95.8504236,39.4075512 95.7579314,39.9139969 95.5906031,40.3979392 C95.1499467,41.3899859 94.2063067,42.0684746 93.1218191,42.173025 C92.9854447,42.1936233 92.8467295,42.1936233 92.7103551,42.173025 C92.1000158,43.0483716 91.8999564,44.1438076 92.1617364,45.1770165 C92.2988911,46.5424672 93.2589738,47.2251925 94.4933658,48.8637333 C95.7277578,50.5022741 96.2763765,51.0484544 95.8649125,52.5504501 L95.8649125,52.5504501 Z M85.1668483,30.7032394 C85.1668483,30.7032394 85.9897763,31.7956 86.538395,31.5225098 C87.0870136,31.2494197 86.8127043,30.7032394 86.538395,30.4301493 C86.2640856,30.1570592 85.5783123,30.2936042 85.1668483,30.5666944 L85.1668483,30.7032394 Z M74.4687841,21.8278101 L73.0972374,19.9161792 C72.6857733,19.3699989 72.6857733,18.2776384 73.5087014,18.0045482 C73.8776735,17.970957 74.2387538,18.1250179 74.4687841,18.4141834 C74.6988143,18.1250179 75.0598946,17.970957 75.4288667,18.0045482 C76.3889494,18.2776384 76.3889494,19.2334538 75.9774854,19.9161792 L74.6059387,21.8278101 L74.4687841,21.8278101 Z M74.4687841,83 L73.0972374,81.0883691 C72.6857733,80.5421888 72.5486187,79.4498283 73.5087014,79.1767381 C73.8090442,79.1513733 74.106642,79.2501317 74.3316294,79.4498283 L74.4687841,79.4498283 C74.7262588,79.2107062 75.0833635,79.1091298 75.4288667,79.1767381 C76.2517948,79.3132832 76.3889494,80.2690987 75.8403307,81.0883691 L74.4687841,83 L74.4687841,83 Z M81.0522082,79.9960085 L79.6806615,78.0843776 C79.4063522,77.5381973 79.1320428,76.4458368 80.0921255,76.1727467 C80.4610976,76.1391554 80.8221779,76.2932163 81.0522082,76.5823819 C81.2822384,76.2932163 81.6433188,76.1391554 82.0122909,76.1727467 C82.8352189,76.4458368 82.9723736,77.2651072 82.4237549,78.0843776 L81.0522082,79.9960085 Z" id="Shape" fill="#FFFFFF" fill-rule="nonzero"></path>
                <path d="M73.9748225,46.2930233 L72.6061975,44.3829457 C72.1956101,43.7007752 72.1956101,42.7457364 73.016785,42.6093023 C73.3615523,42.5417489 73.7178962,42.6432428 73.9748225,42.8821705 C74.2317487,42.6432428 74.5880926,42.5417489 74.9328599,42.6093023 C75.8908974,42.7457364 75.8908974,43.7007752 75.4803099,44.3829457 L74.111685,46.2930233 L73.9748225,46.2930233 Z M80.5442221,25.9643411 C80.1336346,25.4186047 79.4493221,24.7364341 79.1755972,24.0542636 C78.9018722,23.372093 78.6281472,22.4170543 79.5861846,22.2806202 C79.9309519,22.2130668 80.2872958,22.3145606 80.5442221,22.5534884 C80.8011484,22.3145606 81.1574923,22.2130668 81.5022595,22.2806202 C82.3234345,22.4170543 82.460297,23.372093 81.912847,24.0542636 L80.5442221,25.9643411 L80.5442221,25.9643411 Z M80.9548096,56.9348837 L79.5861846,55.0248062 C79.1755972,54.4790698 79.1755972,53.3875969 79.9967721,53.1147287 C80.3649582,53.0811647 80.7252693,53.2351005 80.9548096,53.524031 C81.1843498,53.2351005 81.5446609,53.0811647 81.912847,53.1147287 C82.8708844,53.3875969 82.8708844,54.2062016 82.460297,55.0248062 C82.0497095,55.8434109 81.365397,56.3891473 81.091672,56.9348837 L80.9548096,56.9348837 Z M68.5003228,18.4604651 C68.6823476,18.4422282 68.8657479,18.4422282 69.0477728,18.4604651 L69.0477728,83.675969 C68.8724593,83.7463508 68.688236,83.7922625 68.5003228,83.8124031 C68.318298,83.83064 68.1348976,83.83064 67.9528728,83.8124031 L67.9528728,18.4604651 C68.1350099,18.4446167 68.3181857,18.4446167 68.5003228,18.4604651 L68.5003228,18.4604651 Z M33.7372498,67.1674419 L33.1897999,65.3937984 L32.6423499,63.620155 L33.1897999,63.3472868 L33.6003873,64.4387597 L37.7062621,63.0744186 L37.2956746,61.9829457 L37.8431246,61.7100775 L39.074887,65.1209302 C39.4854745,66.2124031 39.074887,67.303876 38.3905746,67.5767442 C37.8232092,67.737179 37.2165526,67.5172671 36.8850872,67.0310078 C37.0703264,67.7797902 36.6561094,68.5466426 35.9270497,68.8046512 C34.8321498,69.2139535 34.0109748,68.1224806 33.7372498,67.1674419 L33.7372498,67.1674419 Z M36.2007747,65.8031008 L35.9270497,65.2573643 L34.4215623,65.8031008 C34.0109748,65.8031008 34.0109748,66.075969 34.1478373,66.4852713 C34.2023305,66.7801292 34.3925618,67.0323625 34.6615711,67.1664461 C34.9305804,67.3005298 35.2471394,67.3008985 35.5164622,67.1674419 C35.7875579,67.0801196 36.0056042,66.8770508 36.1114121,66.6133591 C36.21722,66.3496673 36.1998115,66.0527115 36.0639122,65.8031008 L36.2007747,65.8031008 Z M38.3905746,65.2573643 L38.2537121,64.5751938 L36.6113622,65.1209302 L36.7482247,65.6666667 C36.8377729,65.8667328 37.0040295,66.0226691 37.2098028,66.0995926 C37.4155761,66.176516 37.6436934,66.168007 37.8431246,66.075969 C38.2537121,65.9395349 38.5274371,65.6666667 38.3905746,65.2573643 L38.3905746,65.2573643 Z M37.8431246,77.4 L37.4325371,76.4449612 C37.1588121,75.4899225 38.5274371,73.7162791 38.801162,73.0341085 L38.801162,72.7612403 L37.1588121,73.7162791 L37.4325371,74.2620155 L36.8850872,74.5348837 L36.2007747,73.1705426 L35.3795997,71.6697674 L35.9270497,71.3968992 L36.4744997,72.2155039 L40.3066495,70.1689922 L39.7591995,69.2139535 L40.3066495,68.9410853 L41.2646869,70.4418605 L41.9489994,71.6697674 C42.7701743,73.3069767 42.4964493,74.1255814 41.6752744,74.6713178 C41.3680744,74.874948 40.9914196,74.9463251 40.6306942,74.8692688 C40.2699687,74.7922124 39.9557252,74.573249 39.7591995,74.2620155 L38.2537121,76.5813953 C38.195766,76.805117 38.195766,77.0398442 38.2537121,77.2635659 L37.8431246,77.4 Z M41.2646869,71.9426357 L41.1278244,71.6697674 L39.2117495,72.6248062 L39.2117495,72.8976744 C39.3520331,73.1930871 39.6177354,73.4102828 39.9358135,73.4895535 C40.2538917,73.5688241 40.5908655,73.5018258 40.8540994,73.3069767 C41.101193,73.1917052 41.2872693,72.9768875 41.3656612,72.716399 C41.4440532,72.4559106 41.4073246,72.1744606 41.2646869,71.9426357 L41.2646869,71.9426357 Z M42.4964493,82.5844961 L41.4015494,81.220155 L41.8121369,80.8108527 L42.3595868,81.4930233 L43.0438993,80.1286822 L41.9489994,78.7643411 L40.5803744,79.1736434 L41.1278244,79.9922481 L40.7172369,80.4015504 L39.896062,79.3100775 L39.2117495,78.4914729 L39.622337,78.2186047 L40.0329245,78.627907 L45.2336992,77.1271318 C45.5267476,77.3180486 45.85095,77.4565576 46.1917366,77.5364341 L46.1917366,77.6728682 L43.4544868,82.7209302 L43.7282117,83.2666667 L43.1807618,83.675969 L42.4964493,82.5844961 Z M44.4125242,77.9457364 L42.6333118,78.4914729 L43.4544868,79.5829457 L44.4125242,77.9457364 Z M52.2136862,84.7674419 L50.2976114,87.0868217 C49.4764364,88.1782946 48.244674,88.1782946 47.0129116,87.0868217 C45.7811491,85.9953488 45.3705617,84.7674419 46.0548741,83.8124031 L48.1078115,81.3565891 L47.423499,80.6744186 L47.8340865,80.2651163 L49.2027114,81.3565891 L50.5713363,82.5844961 L50.1607489,82.9937984 L49.3395739,82.448062 L47.423499,84.6310078 C46.9018574,85.1615229 46.9018574,86.0105701 47.423499,86.5410853 C47.7079223,86.8415242 48.1039984,87.0118055 48.518399,87.0118055 C48.9327996,87.0118055 49.3288756,86.8415242 49.6132989,86.5410853 L51.5293738,84.3581395 L50.8450613,83.675969 L51.2556488,83.2666667 L52.2136862,84.0852713 L53.3085862,84.903876 L52.8979987,85.3131783 L52.2136862,84.7674419 Z M59.7411233,88.5875969 L57.6881859,93.4992248 L56.7301485,93.0899225 L55.3615236,88.0418605 L53.9928986,91.0434109 L54.8140736,91.4527132 L54.5403486,91.9984496 L53.4454487,91.4527132 L52.2136862,90.9069767 L52.4874112,90.3612403 L53.3085862,90.6341085 L54.9509361,86.8139535 C54.9509361,86.5410853 54.6772111,86.4046512 54.1297611,86.1317829 L54.4034861,85.5860465 L56.593286,86.5410853 L57.9619109,91.179845 L59.0568108,88.4511628 L58.2356359,88.0418605 L58.5093609,87.496124 L59.6042608,88.0418605 L60.9728857,88.5875969 L60.6991607,88.9968992 L59.7411233,88.5875969 Z M63.8469981,94.8635659 C63.2755545,94.7633556 62.722118,94.5794542 62.2046482,94.3178295 L62.2046482,94.4542636 L61.6571982,94.4542636 L61.6571982,94.0449612 L62.0677857,92.6806202 L62.6152356,92.6806202 C62.5291493,93.314785 62.9460768,93.9085314 63.5732731,94.0449612 C64.2575855,94.1813953 64.5313105,94.0449612 64.668173,93.4992248 C64.8050355,92.9534884 63.8469981,92.4077519 63.2995481,91.8620155 C62.742172,91.4475857 62.4331196,90.780068 62.4783731,90.0883721 C62.4783731,89.1333333 63.4364106,88.724031 64.8050355,88.724031 C65.269316,88.8320436 65.7264069,88.9687417 66.1736604,89.1333333 L66.1736604,88.8604651 L66.8579729,88.9968992 L66.3105229,90.7705426 L65.763073,90.7705426 C65.850444,90.2108325 65.49378,89.6775111 64.941898,89.5426357 C64.7207802,89.4453933 64.4646056,89.4716318 64.2679435,89.6116651 C64.0712814,89.7516983 63.9632996,89.9847574 63.9838606,90.2248062 C63.9838606,90.7705426 64.5313105,91.179845 65.215623,91.5891473 C65.8469049,92.016035 66.2098471,92.7396474 66.1736604,93.4992248 C66.0367979,94.5906977 65.0787605,95 63.7101356,94.8635659 L63.8469981,94.8635659 Z M71.9218851,94.8635659 C70.7683805,95.2138381 69.5164961,94.8442946 68.7402923,93.9243922 C67.9640885,93.0044898 67.8132886,91.71167 68.357043,90.6387645 C68.9007973,89.565859 70.0342203,88.9198223 71.2375726,88.9968992 C71.8289503,88.9337211 72.4254074,88.9337211 73.016785,88.9968992 L73.016785,88.8604651 L73.564235,88.8604651 L73.564235,89.4062016 L73.7010975,90.7705426 L73.1536475,90.7705426 C73.016785,89.8155039 72.1956101,89.6790698 71.3744351,89.6790698 C70.3376288,90.006965 69.7373392,91.0841041 70.0058102,92.1348837 C70.0058102,93.4992248 71.1007101,94.4542636 72.0587476,94.3178295 C72.529691,94.3301128 72.9973947,94.2368648 73.4273725,94.0449612 C73.4610224,93.6363462 73.4610224,93.2256693 73.4273725,92.8170543 L73.9748225,92.8170543 L73.9748225,94.4542636 C73.3293909,94.7588301 72.6337438,94.9437553 71.9218851,95 L71.9218851,94.8635659 Z M83.0077469,91.7255814 L81.365397,92.4077519 L81.091672,91.8620155 L82.0497095,91.4527132 L81.2285345,89.6790698 L78.7650097,90.7705426 L79.4493221,92.544186 L80.4073596,92.2713178 L80.5442221,92.8170543 L78.9018722,93.3627907 L77.2595223,94.0449612 L77.1226598,93.4992248 L77.9438347,93.0899225 L76.3014848,88.9968992 L75.3434474,89.2697674 L75.2065849,88.724031 L76.8489348,88.0418605 L78.3544222,87.3596899 L78.6281472,87.9054264 L77.8069722,88.3147287 L78.4912847,90.0883721 L80.9548096,88.9968992 L80.2704971,87.3596899 L79.3124597,87.6325581 L79.1755972,87.0868217 L80.6810846,86.5410853 L82.3234345,85.7224806 L82.5971595,86.2682171 L81.7759845,86.8139535 L83.4183344,90.9069767 L84.3763719,90.6341085 L84.5132343,91.0434109 L83.0077469,91.7255814 Z M90.3983215,80.1286822 L92.1775339,85.3131783 L91.6300839,85.8589147 L89.1665591,84.7674419 L89.987734,87.2232558 L89.3034216,87.9054264 L84.2395094,85.3131783 L83.8289219,85.5860465 L83.4183344,85.3131783 L84.3763719,84.4945736 L85.4712718,83.5395349 L85.7449968,83.9488372 L85.4712718,84.3581395 L88.8928341,85.9953488 L88.2085216,84.2217054 L86.4293092,83.4031008 L86.1555842,83.675969 L85.7449968,83.2666667 L86.7030342,82.448062 L87.7979342,81.4930233 L88.2085216,81.9023256 L87.6610717,82.3116279 L91.082634,84.0852713 L89.714009,80.6744186 L89.0296966,81.0837209 L88.7559716,80.6744186 L89.5771465,79.855814 L90.3983215,79.1736434 L90.808909,79.5829457 L90.3983215,80.1286822 Z M97.1045836,79.3100775 L96.6939961,79.9922481 L95.5990962,81.6294574 L95.0516462,81.220155 L95.5990962,80.2651163 L92.0406714,77.8093023 L91.4932214,78.4914729 L90.9457715,78.2186047 L92.0406714,76.8542636 L92.7249839,75.7627907 L93.5461588,74.6713178 L93.2724338,74.3984496 L93.5461588,73.9891473 L93.9567463,74.1255814 L95.1885087,74.944186 L94.7779212,75.4899225 L93.9567463,75.0806202 L92.9987088,76.4449612 L94.3673338,77.5364341 L95.1885087,76.4449612 L94.6410587,76.0356589 L95.0516462,75.4899225 L96.6939961,76.7178295 L96.2834087,77.1271318 L95.7359587,76.8542636 L94.9147837,77.9457364 L96.2834087,78.9007752 L96.5571336,78.9007752 C96.6529284,78.8144741 96.7442866,78.7234019 96.8308586,78.627907 L97.3783086,77.8093023 C97.4847288,77.6835851 97.5765534,77.5462794 97.6520336,77.4 L96.9677211,76.7178295 L97.3783086,76.3085271 L98.610071,77.1271318 L97.1045836,79.3100775 Z M100.799871,73.1705426 L99.9786959,74.8077519 L99.5681085,74.5348837 L99.8418334,73.579845 L96.0096837,71.6697674 L95.4622337,72.4883721 L94.9147837,72.2155039 L95.7359587,70.7147287 L96.5571336,69.0775194 L96.9677211,69.3503876 L96.6939961,70.3054264 L100.663008,72.2155039 L101.073596,71.3968992 L101.621046,71.6697674 L100.799871,73.1705426 Z M102.442221,63.2108527 L103.126533,63.4837209 L103.263396,63.4837209 C103.621633,63.5825297 104.000059,63.5825297 104.358296,63.4837209 C104.211801,63.9257295 104.119882,64.3838864 104.084571,64.848062 C103.943485,65.3182829 103.760264,65.7749025 103.537121,66.2124031 C102.852808,68.5317829 101.210458,69.0775194 99.7049709,68.6682171 C98.8713858,68.4270505 98.182752,67.8390109 97.8156954,67.054923 C97.4486388,66.270835 97.4388705,65.3669831 97.7888961,64.5751938 C97.9726869,63.967923 98.2014188,63.3750815 98.4732085,62.8015504 L98.336346,62.8015504 L98.336346,62.1193798 L98.883796,62.255814 L100.252421,62.6651163 L100.252421,63.2108527 C99.2943835,63.2108527 98.883796,63.7565891 98.4732085,64.5751938 C98.4701725,65.6597089 99.181113,66.6178023 100.222283,66.9323209 C101.263454,67.2468396 102.388304,66.8433052 102.989671,65.9395349 C103.05613,65.6246356 103.05613,65.2993954 102.989671,64.9844961 L101.757908,64.5751938 L101.484183,65.3937984 L100.936733,65.3937984 L101.484183,63.620155 L101.894771,62.1193798 L102.442221,62.255814 L102.442221,63.2108527 Z M37.1588121,51.7503876 C37.2077084,52.8227383 36.6790019,53.8396354 35.7718511,54.4180236 C34.8647004,54.9964118 33.7169233,55.0484202 32.7608763,54.5544577 C31.8048293,54.0604952 31.1857587,53.0956065 31.1368625,52.0232558 C31.0755089,51.4336231 31.0755089,50.8392451 31.1368625,50.2496124 L31,50.2496124 L31,49.8403101 L32.9160749,49.8403101 L32.9160749,50.3860465 C31.9580374,50.3860465 31.821175,51.2046512 31.821175,52.0232558 C31.821175,52.8418605 32.6423499,53.6604651 34.1478373,53.6604651 C35.3094956,53.7417691 36.3317945,52.902511 36.4744997,51.7503876 C36.4868216,51.2809183 36.3932808,50.8146784 36.2007747,50.3860465 C35.8363101,50.3590595 35.4703394,50.3590595 35.1058748,50.3860465 L35.1058748,49.703876 L36.6113622,49.703876 C36.9334284,50.389496 37.1193304,51.1307767 37.1588121,51.8868217 L37.1588121,51.7503876 Z M37.5693996,43.0186047 L37.2956746,44.9286822 L36.7482247,44.9286822 L36.7482247,44.1100775 L35.3795997,44.3829457 L35.1058748,46.2930233 L36.4744997,46.9751938 L36.4744997,45.7472868 L37.1588121,45.7472868 L37.0219496,47.1116279 L36.8850872,48.2031008 L36.3376372,48.2031008 L36.3376372,47.6573643 L31.6843125,44.9286822 C31.6041852,44.5889623 31.4652413,44.2657746 31.273725,43.9736434 L31.273725,43.7007752 L37.0219496,42.3364341 L37.0219496,41.6542636 L37.7062621,41.6542636 L37.5693996,43.0186047 Z M32.9160749,44.9286822 L34.5584248,45.8837209 L34.6952873,44.5193798 L32.9160749,44.9286822 Z M40.4435119,34.8325581 L39.896062,35.7875969 C39.4854745,36.6062016 37.1588121,36.8790698 36.4744997,37.151938 L36.4744997,37.4248062 L38.1168496,37.9705426 L38.5274371,37.2883721 L39.074887,37.4248062 L38.5274371,38.9255814 L38.1168496,40.5627907 L37.5693996,40.4263566 L37.7062621,39.4713178 L33.6003873,38.2434109 L33.1897999,39.3348837 L32.6423499,39.1984496 L33.0529374,37.4248062 L33.4635249,36.0604651 C34.0109748,34.1503876 34.8321498,33.7410853 35.6533247,34.0139535 C36.0448886,34.0449461 36.40422,34.2421562 36.6398976,34.5554096 C36.8755753,34.8686629 36.9648787,35.2677602 36.8850872,35.6511628 L39.622337,34.9689922 C39.737702,34.8502178 39.830451,34.7115299 39.896062,34.5596899 L40.4435119,34.8325581 Z M34.0109748,36.3333333 L34.0109748,36.6062016 L36.0639122,37.2883721 L36.0639122,37.0155039 C36.2453474,36.450931 35.9415373,35.8452126 35.3795997,35.6511628 C35.1102769,35.5177062 34.7937179,35.5180749 34.5247086,35.6521585 C34.2556993,35.7862422 34.065468,36.0384755 34.0109748,36.3333333 L34.0109748,36.3333333 Z M41.8121369,30.875969 C41.3835532,31.9281481 40.3959922,32.6491167 39.2603779,32.7388798 C38.1247635,32.8286429 37.0355667,32.2718287 36.4460021,31.3001276 C35.8564375,30.3284266 35.8674664,29.1082398 36.4744997,28.1472868 C36.8016114,27.3899149 37.4268762,26.8000499 38.2034933,26.5161816 C38.9801104,26.2323133 39.8396741,26.2794452 40.5803744,26.6465116 C41.3300519,27.0210511 41.8890877,27.6902759 42.1228861,28.4930606 C42.3566844,29.2958453 42.2440629,30.1594571 41.8121369,30.875969 L41.8121369,30.875969 Z M37.0219496,28.420155 C36.4744997,29.3751938 37.4325371,30.3302326 38.3905746,30.875969 C39.348612,31.4217054 40.7172369,31.5581395 41.1278244,30.6031008 C41.5384119,29.648062 40.8540994,28.6930233 39.7591995,28.1472868 C38.6642995,27.6015504 37.5693996,27.4651163 37.0219496,28.420155 Z M46.8760491,22.9627907 L45.5074241,24.8728682 L44.8231117,25.5550388 L43.7282117,26.9193798 L43.3176243,26.6465116 L43.8650742,25.827907 L40.3066495,23.0992248 L39.7591995,23.9178295 L39.2117495,23.5085271 L40.3066495,22.144186 L41.4015494,20.779845 L41.8121369,21.1891473 L41.2646869,22.0077519 L44.8231117,24.7364341 L45.6442866,23.5085271 C45.7596517,23.3897527 45.8524006,23.2510648 45.9180116,23.0992248 L45.2336992,22.2806202 L45.6442866,21.7348837 L46.8760491,22.9627907 Z M50.0238864,20.2341085 C48.7766998,21.3643657 46.8465239,21.2727402 45.7127179,20.0294574 C44.5789119,18.7861745 44.670825,16.8620401 45.9180116,15.7317829 C46.4868581,15.1309051 47.2790103,14.7903424 48.1078115,14.7903424 C48.9366127,14.7903424 49.7287648,15.1309051 50.2976114,15.7317829 C50.8976523,16.3584999 51.1967814,17.2131086 51.118099,18.0759067 C51.0394165,18.9387048 50.5905974,19.725531 49.8870239,20.2341085 L50.0238864,20.2341085 Z M46.3285991,16.1410853 C45.6442866,16.9596899 46.0548741,18.1875969 46.7391866,18.8697674 C47.423499,19.551938 48.6552615,20.3705426 49.4764364,19.6883721 C50.2976114,19.0062016 49.8870239,17.7782946 49.0658489,16.9596899 C48.244674,16.1410853 47.149774,15.5953488 46.3285991,16.2775194 L46.3285991,16.1410853 Z M52.2136862,15.7317829 L51.5293738,14.3674419 L54.1297611,13.0031008 L54.8140736,14.0945736 L52.2136862,15.7317829 Z M62.2046482,8.09147287 L61.7940607,13.5488372 L60.9728857,13.9581395 L59.1936733,11.9116279 L59.1936733,14.6403101 L58.0987734,14.9131783 L54.4034861,10.820155 L53.8560362,10.820155 L53.5823112,10.2744186 L54.9509361,9.86511628 L56.319561,9.45581395 L56.319561,10.0015504 L56.045836,10.1379845 L58.3724984,13.0031008 L58.3724984,11.0930233 L57.0038735,9.72868217 L56.593286,9.72868217 L56.4564235,9.31937984 L57.5513234,8.91007752 L59.0568108,8.36434109 L59.3305358,8.91007752 L58.6462234,9.18294574 L61.1097482,12.048062 L61.1097482,8.36434109 L60.4254358,8.50077519 L60.2885733,7.95503876 L61.3834732,7.54573643 L62.3415107,7.27286822 L62.4783731,7.81860465 L62.2046482,8.09147287 Z M66.5842479,12.7302326 L64.8050355,12.8666667 L64.8050355,12.3209302 L65.763073,12.1844961 L65.489348,7.81860465 L64.5313105,7.81860465 L64.5313105,7.27286822 L66.3105229,7.27286822 L67.9528728,7 L67.9528728,7.54573643 L66.9948354,7.68217054 L67.2685604,12.048062 L68.2265978,12.048062 L68.2265978,12.5937984 L66.5842479,12.7302326 Z M75.0697224,13.4124031 L72.6061975,13.0031008 L71.7850226,12.8666667 L70.0058102,12.5937984 L70.1426727,12.048062 L71.1007101,12.048062 L71.7850226,7.81860465 L70.8269852,7.54573643 L70.9638476,7 L72.74306,7.27286822 L74.3854099,7.54573643 L74.3854099,8.09147287 L73.4273725,8.09147287 L72.74306,12.4573643 L74.111685,12.5937984 C74.2477688,12.61438 74.3861886,12.61438 74.5222724,12.5937984 L75.0697224,11.7751938 L75.6171724,11.7751938 L75.0697224,13.4124031 Z M82.0497095,16.2775194 L80.2704971,15.7317829 L80.4073596,15.1860465 L81.365397,15.4589147 L82.186572,13.8217054 L79.5861846,12.5937984 L78.9018722,14.3674419 L79.7230471,14.7767442 L79.4493221,15.3224806 L77.9438347,14.503876 L76.3014848,13.6852713 L76.5752098,13.275969 L77.3963848,13.5488372 L79.3124597,9.72868217 L78.4912847,9.18294574 L78.7650097,8.6372093 L80.4073596,9.45581395 L81.912847,10.2744186 L81.639122,10.6837209 L80.8179471,10.4108527 L79.9967721,12.048062 L82.460297,13.275969 L83.2814719,11.6387597 L82.460297,11.0930233 L82.7340219,10.6837209 L84.2395094,11.3658915 L85.8818593,12.048062 L85.6081343,12.5937984 L84.6500968,12.1844961 L82.8708844,16.2775194 L83.6920594,16.6868217 L83.4183344,17.2325581 L82.0497095,16.2775194 Z M86.4293092,19.551938 L85.7449968,19.0062016 L84.3763719,17.7782946 L84.7869593,17.3689922 L85.6081343,17.9147287 L88.3453841,14.6403101 L87.7979342,13.9581395 L88.0716591,13.5488372 L89.4402841,14.6403101 L90.3983215,15.4589147 L91.4932214,16.2775194 L91.7669464,16.1410853 L92.1775339,16.5503876 L91.9038089,16.8232558 L90.9457715,17.9147287 L90.535184,17.6418605 L90.9457715,16.8232558 L89.5771465,15.7317829 L88.4822466,17.096124 L89.4402841,17.9147287 L89.987734,17.5054264 L90.3983215,17.9147287 L89.0296966,19.2790698 L88.6191091,19.0062016 L88.8928341,18.4604651 L87.9347966,17.6418605 L86.8398967,19.0062016 C86.921888,19.1485631 87.0133335,19.285302 87.1136217,19.4155039 L87.9347966,20.0976744 C88.0172131,20.197022 88.1088621,20.2883842 88.2085216,20.3705426 L88.8928341,19.8248062 L89.4402841,20.0976744 L88.4822466,21.1891473 L86.4293092,19.551938 Z M92.5881214,26.2372093 L91.082634,24.3271318 L90.535184,23.6449612 L89.4402841,22.2806202 L89.8508715,22.0077519 L90.535184,22.6899225 L93.9567463,19.8248062 L93.4092963,19.0062016 L93.8198838,18.7333333 L94.9147837,20.0976744 L96.0096837,21.4620155 L95.5990962,21.7348837 L94.9147837,21.1891473 L91.4932214,23.9178295 L92.3143964,25.0093023 C92.4335437,25.1243063 92.5726671,25.2167649 92.7249839,25.2821705 L93.8198838,24.8728682 L94.0936088,25.4186047 L92.5881214,26.2372093 Z M96.6939961,33.4682171 L95.8728212,32.103876 L96.4202711,31.8310078 L96.8308586,32.3767442 L100.115558,30.7395349 L95.0516462,30.7395349 L97.7888961,26.9193798 L94.7779212,28.2837209 L95.0516462,29.1023256 L94.5041963,29.3751938 L94.0936088,28.5565891 L93.4092963,27.1922481 L93.9567463,26.9193798 L94.3673338,27.6015504 L98.4732085,25.827907 L98.062621,25.0093023 L98.610071,24.7364341 L99.2943835,26.1007752 L99.7049709,26.9193798 L97.3783086,30.0573643 L101.210458,30.0573643 L101.484183,30.6031008 L102.442221,32.3767442 L101.894771,32.6496124 L101.484183,31.8310078 L97.5151711,33.8775194 L97.9257586,34.8325581 L97.3783086,35.1054264 L96.6939961,33.4682171 Z M98.1994835,38.1069767 L97.6520336,36.4697674 L98.1994835,36.1968992 L98.610071,37.151938 L102.715946,35.7875969 L102.715946,34.9689922 L103.126533,34.8325581 L103.673983,36.4697674 L104.084571,38.1069767 L103.537121,38.379845 L103.263396,37.4248062 L99.157521,38.7891473 L99.157521,39.6077519 L98.610071,39.744186 L98.1994835,38.1069767 Z M104.905746,46.5658915 L99.8418334,47.3844961 L99.7049709,46.2930233 L103.263396,42.4728682 L99.9786959,43.0186047 L99.9786959,43.8372093 L99.2943835,43.8372093 L99.2943835,42.7457364 L99.0206585,41.3813953 L99.5681085,41.2449612 L99.7049709,42.0635659 L103.947708,41.5178295 C104.084571,41.3813953 104.084571,40.972093 103.947708,40.4263566 L104.632021,40.4263566 L104.905746,42.7457364 L101.757908,46.1565891 L104.905746,45.7472868 L104.905746,44.9286822 L105.453196,44.7922481 L105.590058,46.020155 L105.863783,47.3844961 L105.316333,47.3844961 L104.905746,46.5658915 Z M99.9786959,54.2062016 L99.9786959,52.296124 L100.663008,52.296124 L100.663008,53.1147287 L102.031633,52.7054264 L102.031633,50.7953488 L100.663008,50.2496124 L100.526146,51.3410853 L99.9786959,51.3410853 L99.9786959,48.8852713 L100.526146,48.8852713 L100.526146,49.4310078 L105.453196,51.6139535 C105.589271,51.9149807 105.774239,52.1915635 106.000646,52.4325581 L106.000646,52.7054264 L100.526146,54.751938 L100.526146,55.2976744 L99.8418334,55.2976744 L99.9786959,54.2062016 Z M104.495158,51.8868217 L102.715946,51.2046512 L102.715946,52.5689922 L104.495158,51.8868217 Z M127.488057,24.3271318 L127.488057,35.7875969 L125.024532,35.7875969 L125.024532,24.3271318 L121.05552,24.3271318 L121.05552,22.2806202 L131.593932,22.2806202 L131.593932,24.3271318 L127.488057,24.3271318 Z M133.783731,31.4217054 C133.852131,32.7487451 134.91605,33.8093336 136.247256,33.8775194 C137.469023,33.8219004 138.632042,33.3388257 139.531956,32.5131783 L139.668819,34.9689922 C138.489581,35.7303538 137.103838,36.1114311 135.699806,36.0604651 C134.427312,36.0657188 133.211635,35.5356069 132.351772,34.6005104 C131.491909,33.6654139 131.067651,32.4121058 131.183344,31.1488372 C131.183344,28.0108527 133.099419,26.2372093 135.699806,26.2372093 C138.984506,26.2372093 139.805681,27.8744186 139.805681,31.4217054 L133.783731,31.4217054 Z M135.699806,28.1472868 C135.368399,28.1891496 135.045338,28.281164 134.741769,28.420155 C134.338162,28.7835169 134.052281,29.2584933 133.920594,29.7844961 L137.615881,29.7844961 C137.615881,28.8294574 137.342156,28.1472868 135.699806,28.1472868 L135.699806,28.1472868 Z M146.648806,36.0604651 C143.911556,36.0604651 142.132343,34.2868217 142.132343,31.0124031 C142.016426,29.7853798 142.426148,28.5666747 143.26038,27.6570893 C144.094612,26.7475039 145.275633,26.2317802 146.511943,26.2371669 C148.428018,26.2371669 149.933505,26.6465116 149.933505,28.1472868 L149.933505,28.6930233 C149.943117,28.8748092 149.943117,29.0569737 149.933505,29.2387597 L147.606843,29.2387597 C147.606843,28.420155 147.333118,28.2837209 146.648806,28.2837209 C146.42255,28.2427866 146.190749,28.2427866 145.964493,28.2837209 C145.690768,28.2837209 144.732731,28.9658915 144.732731,31.0124031 C144.732731,33.4682171 146.101356,34.0139535 147.196256,34.0139535 C148.241848,34.0091329 149.236448,33.5629639 149.933505,32.7860465 L150.070368,35.1054264 C149.048734,35.7519478 147.858678,36.0841203 146.648806,36.0604651 L146.648806,36.0604651 Z M161.019367,35.7875969 L158.692705,35.7875969 L158.692705,31.6945736 C158.692705,28.9658915 158.692705,28.420155 157.597805,28.420155 C157.18215,28.3757944 156.761791,28.4223548 156.366043,28.5565891 C155.910757,28.9187667 155.497595,29.3306361 155.13428,29.7844961 L155.13428,35.7875969 L152.807618,35.7875969 L152.807618,20.779845 L155.271143,20.779845 L155.271143,27.3286822 C155.940106,26.6089391 156.887598,26.2112437 157.87153,26.2372093 C161.019367,26.2372093 161.293092,28.1472868 161.293092,30.3302326 L161.293092,35.7875969 L161.019367,35.7875969 Z M172.515817,35.7875969 L169.915429,35.7875969 L170.052292,31.0124031 C170.069891,30.6487903 170.069891,30.284543 170.052292,29.9209302 C170.052292,28.6930233 169.778567,28.420155 168.957392,28.420155 C168.586919,28.3910701 168.214384,28.4374912 167.862492,28.5565891 C167.352876,28.9025586 166.892501,29.315599 166.493867,29.7844961 L166.493867,35.7875969 L164.167205,35.7875969 L164.167205,29.2387597 C164.140734,28.3238954 164.049263,27.412051 163.89348,26.5100775 L166.08328,26.5100775 L166.357005,27.6015504 C167.01663,26.758898 168.022241,26.2576663 169.094254,26.2372093 C172.378954,26.2372093 172.652679,28.2837209 172.652679,30.3302326 L172.652679,31.4217054 L172.515817,35.7875969 L172.515817,35.7875969 Z M176.621691,24.7364341 C175.893811,24.6729872 175.316713,24.0976954 175.253066,23.372093 C175.169804,22.9659025 175.276332,22.5440077 175.542575,22.2255153 C175.808819,21.9070229 176.205891,21.7264901 176.621691,21.7348837 C177.377562,21.7348837 177.990316,22.34572 177.990316,23.0992248 C178.073579,23.5054154 177.967051,23.9273101 177.700807,24.2458026 C177.434564,24.564295 177.037492,24.7448278 176.621691,24.7364341 Z M175.253066,35.6511628 L175.253066,26.6465116 L177.853454,26.6465116 L177.853454,35.924031 L175.253066,35.6511628 Z M183.464816,36.0604651 C182.302468,36.0505065 181.165578,35.7199514 180.180116,35.1054264 L180.316979,33.0589147 C181.234923,33.7084786 182.339506,34.0436038 183.464816,34.0139535 C184.696578,34.0139535 184.833441,33.6046512 184.833441,33.3317829 C184.833441,31.9674419 180.043254,32.2403101 180.043254,28.9658915 C180.043254,27.3286822 181.411879,26.2371239 183.875403,26.2371239 C185.021803,26.2314916 186.151273,26.5129753 187.160103,27.055814 L186.886378,29.2387597 C186.03814,28.541209 184.974982,28.1558163 183.875403,28.1472868 C183.464816,28.1472868 182.506779,28.2837209 182.506779,28.8294574 C182.506779,30.1937984 187.433828,29.9209302 187.433828,33.0589147 C187.433828,34.696124 186.065203,36.0604651 183.464816,36.0604651 L183.464816,36.0604651 Z M194.003228,36.0604651 C191.265978,36.0604651 189.486766,34.2868217 189.486766,31.0124031 C189.37263,29.8087659 189.764283,28.6118366 190.568411,27.7067913 C191.37254,26.801746 192.51714,26.2696249 193.729503,26.2372093 C195.645578,26.2372093 197.287928,26.6465116 197.287928,28.1472868 L197.287928,28.6930233 C197.297799,28.8748023 197.297799,29.0569806 197.287928,29.2387597 L194.824403,29.2387597 C194.824403,28.420155 194.68754,28.2837209 194.003228,28.2837209 C193.732719,28.2245621 193.452561,28.2245621 193.182053,28.2837209 C193.04519,28.2837209 192.087153,28.9658915 192.087153,31.0124031 C192.087153,33.4682171 193.455778,34.0139535 194.550678,34.0139535 C195.59627,34.0091329 196.59087,33.5629639 197.287928,32.7860465 L197.42479,35.1054264 C196.403156,35.7519478 195.213101,36.0841203 194.003228,36.0604651 L194.003228,36.0604651 Z M207.963202,35.7875969 L205.499677,35.7875969 L205.499677,31.6945736 C205.499677,28.9658915 205.499677,28.420155 204.54164,28.420155 C204.125985,28.3757944 203.705626,28.4223548 203.309877,28.5565891 C202.854592,28.9187667 202.44143,29.3306361 202.078115,29.7844961 L202.078115,35.7875969 L199.61459,35.7875969 L199.61459,20.779845 L202.078115,20.779845 L202.078115,27.3286822 C202.747078,26.6089391 203.69457,26.2112437 204.678502,26.2372093 C207.82634,26.2372093 208.100065,28.1472868 208.100065,30.3302326 L208.100065,35.7875969 L207.963202,35.7875969 Z M212.890252,31.4217054 C212.950874,32.7008185 213.939339,33.7441525 215.216914,33.8775194 C216.438681,33.8219004 217.6017,33.3388257 218.501614,32.5131783 L218.775339,34.9689922 C217.557578,35.7579366 216.1196,36.1401971 214.669464,36.0604651 C213.420911,36.0279302 212.241615,35.4814362 211.411838,34.5508593 C210.582061,33.6202824 210.175894,32.3887127 210.289864,31.1488372 C210.289864,28.1472868 212.205939,26.2372093 214.806327,26.2372093 C217.954164,26.2372093 218.912201,27.8744186 218.912201,31.4217054 L212.890252,31.4217054 Z M214.806327,28.1472868 C214.428301,28.17459 214.057868,28.2669085 213.711427,28.420155 C213.30782,28.7835169 213.021939,29.2584933 212.890252,29.7844961 L216.585539,29.7844961 C216.585539,28.8294574 216.311814,28.1472868 214.806327,28.1472868 L214.806327,28.1472868 Z M133.646869,52.8418605 C133.646869,56.2527132 131.046482,57.8899225 127.761782,57.8899225 C125.024532,57.8899225 122.287282,56.2527132 122.287282,53.2511628 L122.287282,44.1100775 L124.887669,44.1100775 L124.887669,52.7054264 C124.800361,53.5250897 125.089412,54.3401705 125.674089,54.9230183 C126.258767,55.5058661 127.076407,55.7940118 127.898644,55.7069767 C128.742824,55.8401677 129.600961,55.5726324 130.218594,54.9837018 C130.836227,54.3947713 131.142458,53.5520502 131.046482,52.7054264 L131.046482,44.1100775 L133.510006,44.1100775 L133.646869,52.8418605 Z M144.595868,57.6170543 L142.132343,57.6170543 L142.132343,52.8418605 C142.149942,52.4782477 142.149942,52.1140004 142.132343,51.7503876 C142.132343,50.5224806 141.858618,50.2496124 141.174306,50.2496124 C140.758655,50.2006139 140.337267,50.2472882 139.942544,50.3860465 C139.489347,50.6990758 139.075761,51.0655571 138.710781,51.4775194 L138.710781,57.6170543 L136.110394,57.6170543 L136.110394,51.0682171 C136.129245,50.156579 136.08351,49.2447516 135.973531,48.3395349 L138.163331,48.3395349 L138.437056,49.4310078 C139.096681,48.5883554 140.102292,48.0871237 141.174306,48.0666667 C144.459006,48.0666667 144.732731,49.9767442 144.732731,52.1596899 L144.732731,53.2511628 L144.595868,57.6170543 L144.595868,57.6170543 Z M148.838606,46.5658915 C148.110725,46.5024446 147.533627,45.9271528 147.469981,45.2015504 C147.386718,44.7953598 147.493246,44.3734651 147.75949,44.0549726 C148.025733,43.7364802 148.422805,43.5559474 148.838606,43.5643411 C149.594476,43.5643411 150.20723,44.1751774 150.20723,44.9286822 C150.290493,45.3348727 150.183965,45.7567675 149.917721,46.0752599 C149.651478,46.3937523 149.254406,46.5742851 148.838606,46.5658915 L148.838606,46.5658915 Z M147.606843,57.4806202 L147.606843,48.475969 L150.070368,48.475969 L150.070368,57.7534884 L147.606843,57.4806202 Z M157.32408,57.8899225 L155.544868,57.8899225 L152.123305,48.3395349 L154.860555,48.3395349 L156.639768,53.9333333 L158.282117,48.475969 L160.745642,48.475969 L157.32408,57.8899225 Z M164.851517,53.2511628 C164.849598,54.6311904 165.932599,55.7707791 167.315042,55.8434109 C168.488971,55.7568589 169.598723,55.2758683 170.462879,54.4790698 L170.736604,56.7984496 C169.557366,57.5598112 168.171624,57.9408885 166.767592,57.8899225 C165.495098,57.8951762 164.279421,57.3650643 163.419558,56.4299678 C162.559695,55.4948713 162.135437,54.2415632 162.25113,52.9782946 C162.25113,49.9767442 164.167205,48.0666667 166.767592,48.0666667 C169.915429,48.0666667 170.873467,49.8403101 170.873467,53.2511628 L164.851517,53.2511628 Z M166.767592,49.9767442 C166.389566,50.0040474 166.019133,50.0963658 165.672692,50.2496124 C165.319119,50.6302956 165.081739,51.1035706 164.98838,51.6139535 L168.683667,51.6139535 C168.546804,50.6589147 168.409942,49.9767442 166.767592,49.9767442 Z M177.442866,51.2046512 C177.442866,50.6589147 177.442866,50.1131783 176.895416,50.1131783 C176.347966,50.1131783 176.347966,50.6589147 175.937379,51.3410853 L175.937379,57.6170543 L173.473854,57.6170543 L173.473854,51.0682171 C173.499784,50.1564891 173.454024,49.2441371 173.336992,48.3395349 L175.526791,48.3395349 L175.800516,49.4310078 C176.184237,48.6975014 176.896105,48.1906158 177.716591,48.0666667 C178.948354,48.0666667 179.358941,48.8852713 179.358941,49.9767442 C179.376812,50.2493216 179.376812,50.5227714 179.358941,50.7953488 L177.442866,51.2046512 Z M184.285991,57.8899225 C183.123643,57.8799638 181.986753,57.5494088 181.001291,56.9348837 L181.275016,54.8883721 C182.15503,55.5103001 183.207264,55.8440541 184.285991,55.8434109 C185.517753,55.8434109 185.654616,55.4341085 185.654616,55.1612403 C185.654616,53.7968992 181.001291,54.0697674 181.001291,50.7953488 C181.001291,49.1581395 182.369916,48.0666667 184.833441,48.0666667 C185.933475,48.0833228 187.013264,48.3641254 187.981278,48.8852713 L187.707553,51.0682171 C186.859315,50.3706664 185.796157,49.9852737 184.696578,49.9767442 C184.285991,49.9767442 183.327954,50.1131783 183.327954,50.6589147 C183.327954,52.0232558 188.255003,51.7503876 188.255003,54.8883721 C188.255003,56.5255814 186.886378,57.8899225 184.422853,57.8899225 L184.285991,57.8899225 Z M192.087153,46.5658915 C191.359272,46.5024446 190.782174,45.9271528 190.718528,45.2015504 C190.635266,44.7953598 190.741793,44.3734651 191.008037,44.0549726 C191.274281,43.7364802 191.671352,43.5559474 192.087153,43.5643411 C192.843024,43.5643411 193.455778,44.1751774 193.455778,44.9286822 C193.53904,45.3348727 193.432513,45.7567675 193.166269,46.0752599 C192.900025,46.3937523 192.502954,46.5742851 192.087153,46.5658915 Z M190.855391,57.4806202 L190.855391,48.475969 L193.318915,48.475969 L193.318915,57.7534884 L190.855391,57.4806202 Z M199.340865,57.8899225 C198.673305,57.8945459 198.035913,57.6130976 197.590776,57.1171492 C197.145639,56.6212007 196.935648,55.9585381 197.014203,55.2976744 L197.014203,49.9767442 L195.645578,49.9767442 L195.645578,48.475969 L197.014203,48.475969 L197.014203,45.3379845 L199.477728,45.3379845 L199.477728,48.475969 L201.530665,48.475969 L201.530665,50.1131783 L199.340865,50.1131783 L199.340865,54.8883721 C199.340865,55.8434109 199.61459,55.8434109 199.751453,55.8434109 C200.389996,55.7583145 200.999492,55.5246266 201.530665,55.1612403 L201.80439,57.2077519 C201.063335,57.6786231 200.217119,57.9598124 199.340865,58.0263566 L199.340865,57.8899225 Z M209.331827,57.6170543 C209.215161,57.2600393 209.123696,56.8953245 209.058102,56.5255814 C208.426925,57.4021808 207.40304,57.9125208 206.320852,57.8899225 C205.644723,57.9661121 204.967093,57.7601342 204.448642,57.3208309 C203.930192,56.8815276 203.617098,56.2480255 203.583602,55.5705426 C203.571934,54.8938056 203.762501,54.2289082 204.131052,53.6604651 C204.678502,52.9782946 207.415752,52.296124 208.647515,52.0232558 L208.647515,51.2046512 C208.647515,50.2496124 208.647515,49.8403101 207.552615,49.8403101 C207.142027,49.8403101 206.18399,49.8403101 206.18399,50.1131783 C206.080003,50.3249587 206.032849,50.5599895 206.047127,50.7953488 L203.99419,50.9317829 L203.99419,50.5224806 C203.977353,50.0636118 204.023398,49.6045982 204.131052,49.1581395 C205.1046,48.3012127 206.401083,47.9035434 207.689477,48.0666667 C209.879277,48.0666667 211.111039,49.0217054 211.111039,50.7953488 L211.111039,54.8883721 C211.156887,55.8092459 211.294426,56.7232983 211.521627,57.6170543 L209.331827,57.6170543 Z M206.047127,46.8387597 C205.291257,46.8387597 204.678502,46.2279234 204.678502,45.4744186 C204.678502,44.7209138 205.291257,44.1100775 206.047127,44.1100775 C206.802998,44.1100775 207.415752,44.7209138 207.415752,45.4744186 C207.415752,46.2279234 206.802998,46.8387597 206.047127,46.8387597 Z M208.784377,53.6604651 C207.943285,53.809134 207.118362,54.0375618 206.320852,54.3426357 C206.272803,54.5675035 206.272803,54.7999384 206.320852,55.0248062 C206.320852,55.5705426 206.320852,55.979845 207.005165,55.979845 C207.719664,55.8648133 208.359381,55.4723735 208.784377,54.8883721 L208.784377,53.6604651 Z M209.468689,46.8387597 C208.712819,46.8387597 208.100065,46.2279234 208.100065,45.4744186 C208.100065,44.7209138 208.712819,44.1100775 209.468689,44.1100775 C210.22456,44.1100775 210.837314,44.7209138 210.837314,45.4744186 C210.837314,46.2279234 210.22456,46.8387597 209.468689,46.8387597 Z M216.859264,57.8899225 C216.168284,57.9355039 215.492847,57.6718874 215.01659,57.1707453 C214.540333,56.6696031 214.312758,55.9830237 214.395739,55.2976744 L214.395739,49.9767442 L213.027114,49.9767442 L213.027114,48.475969 L214.395739,48.475969 L214.395739,45.3379845 L216.859264,45.3379845 L216.859264,48.475969 L218.912201,48.475969 L218.912201,50.1131783 L216.859264,50.1131783 L216.859264,54.8883721 C216.859264,55.8434109 217.132989,55.8434109 217.269852,55.8434109 C217.908395,55.7583145 218.517891,55.5246266 219.049064,55.1612403 L219.322789,57.2077519 C218.581734,57.6786231 217.735518,57.9598124 216.859264,58.0263566 L216.859264,57.8899225 Z M128.035507,79.4465116 L122.69787,79.4465116 L122.69787,66.075969 L127.488057,65.8031008 C130.635894,65.8031008 131.867657,67.5767442 131.867657,69.2139535 C131.97801,70.4904747 131.263366,71.6960865 130.088444,72.2155039 C131.684602,72.5510367 132.791903,74.0034514 132.688832,75.6263566 C132.688832,77.9457364 130.772757,79.4465116 128.035507,79.4465116 L128.035507,79.4465116 Z M127.077469,67.8496124 L125.161394,67.8496124 L125.161394,71.2604651 L126.940607,71.2604651 C128.582957,71.2604651 129.130407,70.5782946 129.130407,69.4868217 C129.130407,68.3953488 128.446094,67.8496124 127.077469,67.8496124 L127.077469,67.8496124 Z M127.351194,73.3069767 L125.161394,73.3069767 L125.161394,77.4 L127.214332,77.4 C129.267269,77.4 129.951582,76.7178295 129.951582,75.3534884 C129.951582,73.9891473 128.993544,73.3069767 127.351194,73.3069767 Z M138.710781,73.0341085 C138.710781,72.4883721 138.710781,71.9426357 138.300194,71.9426357 C137.889606,71.9426357 137.752744,72.4883721 137.342156,73.1705426 L137.342156,79.4465116 L135.015494,79.4465116 L135.015494,72.8976744 C134.996142,71.9823674 134.904618,71.0699945 134.741769,70.1689922 L136.931569,70.1689922 L137.205294,71.2604651 C137.615834,70.4904019 138.387272,69.9777196 139.258231,69.896124 C140.489994,69.896124 140.900581,70.7147287 140.900581,71.8062016 C140.918452,72.078779 140.918452,72.3522288 140.900581,72.6248062 L138.710781,73.0341085 Z M147.333118,79.4465116 C147.216452,79.0894967 147.124987,78.7247818 147.059393,78.3550388 C146.45637,79.1925263 145.492918,79.6980193 144.459006,79.7193798 C143.782877,79.7955695 143.105246,79.5895916 142.586796,79.1502882 C142.068346,78.7109849 141.755252,78.0774829 141.721756,77.4 C141.710088,76.723263 141.900655,76.0583656 142.269206,75.4899225 C142.679793,74.8077519 145.417043,74.1255814 146.785668,73.8527132 L146.785668,73.0341085 C146.785668,72.0790698 146.648806,71.6697674 145.417043,71.6697674 C145.143318,71.6697674 144.322143,71.6697674 144.048418,71.9426357 C143.990472,72.1663573 143.990472,72.4010846 144.048418,72.6248062 L141.995481,72.7612403 L141.995481,72.351938 C142.023113,71.8867428 142.11523,71.4276024 142.269206,70.9875969 C143.209268,70.167796 144.447916,69.7726693 145.690768,69.896124 C147.880568,69.896124 149.249193,70.8511628 149.249193,72.6248062 L149.249193,76.7178295 C149.250094,77.6341555 149.341781,78.5481527 149.522918,79.4465116 L147.333118,79.4465116 Z M146.785668,75.3534884 C145.939866,75.5462832 145.114825,75.820436 144.322143,76.172093 C144.274094,76.3969608 144.274094,76.6293958 144.322143,76.8542636 C144.322143,77.4 144.322143,77.8093023 145.006456,77.8093023 C145.720955,77.6942706 146.360672,77.3018309 146.785668,76.7178295 L146.785668,75.3534884 Z M158.282117,79.4465116 L158.145255,78.3550388 C157.48563,79.1976911 156.480019,79.6989229 155.408005,79.7193798 C152.807618,79.7193798 151.986443,78.627907 151.986443,76.3085271 L151.986443,70.1689922 L154.449968,70.1689922 L154.449968,76.0356589 C154.449968,76.8542636 154.449968,77.5364341 155.544868,77.5364341 C155.915149,77.5585782 156.286347,77.5123236 156.639768,77.4 C157.136148,77.03751 157.594667,76.6261343 158.008393,76.172093 L158.008393,70.3054264 L160.335055,70.3054264 L160.335055,76.8542636 C160.354407,77.7695706 160.44593,78.6819435 160.60878,79.5829457 L158.282117,79.4465116 Z M171.557779,79.4465116 L169.094254,79.4465116 L169.094254,74.6713178 C169.111853,74.307705 169.111853,73.9434578 169.094254,73.579845 C169.094254,72.351938 168.820529,72.0790698 168.136217,72.0790698 C167.720566,72.0300713 167.299178,72.0767456 166.904454,72.2155039 C166.451258,72.5285332 166.037672,72.8950145 165.672692,73.3069767 L165.672692,79.4465116 L163.209167,79.4465116 L163.209167,72.8976744 C163.182696,71.9828102 163.091226,71.0709657 162.935442,70.1689922 L165.125242,70.1689922 L165.398967,71.2604651 C166.058592,70.4178127 167.064203,69.916581 168.136217,69.896124 C171.420917,69.896124 171.694642,71.8062016 171.694642,73.9891473 L171.694642,75.0806202 L171.557779,79.4465116 L171.557779,79.4465116 Z M177.442866,79.7193798 C176.187719,79.7619693 174.948477,79.4293716 173.884442,78.7643411 L174.158167,76.7178295 C175.076111,77.3673933 176.180693,77.7025185 177.306004,77.6728682 C178.400904,77.6728682 178.674629,77.2635659 178.674629,76.9906977 C178.674629,75.6263566 173.884442,75.8992248 173.884442,72.6248062 C173.884442,70.9875969 175.253066,69.8960386 177.716591,69.8960386 C178.862991,69.8904063 179.992461,70.17189 181.001291,70.7147287 L180.727566,72.8976744 C179.84317,72.1699678 178.72624,71.7826861 177.579729,71.8062016 C177.169141,71.8062016 176.347966,71.9426357 176.347966,72.4883721 C176.347966,73.8527132 181.275016,73.579845 181.275016,76.7178295 C181.275016,78.3550388 179.906391,79.7193798 177.306004,79.7193798 L177.442866,79.7193798 Z M187.296966,79.7193798 C184.559716,79.7193798 182.780504,77.9457364 182.780504,74.6713178 C182.664586,73.4442946 183.074308,72.2255894 183.90854,71.316004 C184.742772,70.4064187 185.923793,69.8906949 187.160103,69.8960816 C189.076178,69.8960816 190.581666,70.3054264 190.581666,71.8062016 L190.581666,72.351938 C190.591537,72.5337171 190.591537,72.7158953 190.581666,72.8976744 L188.391866,72.8976744 C188.391866,72.0790698 188.118141,71.9426357 187.433828,71.9426357 C187.207572,71.9017013 186.975772,71.9017013 186.749516,71.9426357 C186.475791,72.0790698 185.517753,72.6248062 185.517753,74.6713178 C185.517753,77.1271318 186.886378,77.6728682 187.981278,77.6728682 C189.02687,77.6680476 190.02147,77.2218786 190.718528,76.4449612 L190.855391,78.7643411 C189.833756,79.4108625 188.643701,79.743035 187.433828,79.7193798 L187.296966,79.7193798 Z M201.25694,79.4465116 L198.793415,79.4465116 L198.793415,75.3534884 C198.793415,72.6248062 198.793415,72.0790698 197.835378,72.0790698 C197.374816,72.0134525 196.90516,72.0602711 196.466753,72.2155039 C196.066379,72.5422315 195.699606,72.9078564 195.371853,73.3069767 L195.371853,79.4465116 L192.908328,79.4465116 L192.908328,64.4387597 L195.371853,64.4387597 L195.371853,70.9875969 C196.008585,70.3030214 196.898967,69.9085349 197.835378,69.896124 C201.120077,69.896124 201.393802,71.9426357 201.393802,73.9891473 L201.393802,79.4465116 L201.25694,79.4465116 Z M212.890252,79.7193798 L211.521627,79.7193798 L209.605552,75.3534884 L207.82634,79.7193798 L206.457715,79.7193798 L202.762427,70.1689922 L205.499677,70.1689922 L207.415752,75.4899225 L209.605552,69.896124 L212.069077,75.6263566 L213.985152,70.1689922 L216.311814,70.1689922 L212.890252,79.7193798 Z M219.596514,75.0806202 C219.594595,76.4606477 220.677595,77.6002364 222.060039,77.6728682 C223.233968,77.5863162 224.34372,77.1053256 225.207876,76.3085271 L225.481601,78.627907 C224.302363,79.3892686 222.916621,79.7703458 221.512589,79.7193798 C220.240094,79.7246335 219.024418,79.1945216 218.164555,78.2594252 C217.304691,77.3243287 216.880433,76.0710206 216.996127,74.8077519 C216.996127,71.8062016 218.912201,69.896124 221.512589,69.896124 C224.660426,69.896124 225.618464,71.6697674 225.618464,75.0806202 L219.596514,75.0806202 Z M221.512589,71.8062016 C221.181182,71.8480643 220.85812,71.9400787 220.554551,72.0790698 C220.150944,72.4424316 219.865064,72.917408 219.733376,73.4434109 L223.428664,73.4434109 C223.428664,72.4883721 223.154939,71.8062016 221.512589,71.8062016 L221.512589,71.8062016 Z M229.313751,68.395366 C228.58587,68.3319019 228.008772,67.7566101 227.945126,67.0310078 C227.861863,66.6248172 227.968391,66.2029224 228.234635,65.88443 C228.500879,65.5659376 228.89795,65.3854048 229.313751,65.3937984 C229.701739,65.3918592 230.072321,65.5541741 230.333313,65.8403673 C230.594306,66.1265605 230.72118,66.509734 230.682376,66.8945736 C230.72118,67.2794133 230.594306,67.6625868 230.333313,67.94878 C230.072321,68.2349732 229.701739,68.3972881 229.313751,68.395366 L229.313751,68.395366 Z M228.081988,79.3100775 L228.081988,70.3054264 L230.545513,70.3054264 L230.545513,79.5829457 L228.081988,79.3100775 Z M241.35765,72.351938 C241.473559,72.7035357 241.520036,73.0741895 241.494513,73.4434109 C241.494513,75.6263566 239.852163,77.1271318 237.251775,77.1271318 C236.791117,77.158694 236.328417,77.1125689 235.88315,76.9906977 C235.609425,77.2635659 235.3357,77.5364341 235.3357,77.9457364 C235.327748,78.0826948 235.389155,78.2145166 235.499249,78.2968292 C235.609344,78.3791417 235.753484,78.4009972 235.88315,78.3550388 L238.894125,78.2186047 C241.083925,78.2186047 242.45255,78.4914729 242.45255,80.6744186 C242.45255,83.4031008 239.578438,84.7674419 236.841188,84.7674419 C234.651388,84.7674419 232.735313,84.3581395 232.735313,82.5844961 C232.793676,81.5202635 233.499538,80.6001024 234.514526,80.2651163 C233.743607,80.0839019 233.185686,79.4164917 233.145901,78.627907 C233.145901,77.6728682 234.240801,77.2635659 234.925113,76.5813953 C233.674792,76.0563271 232.902623,74.7917334 233.009038,73.4434109 C233.009038,71.3968992 234.78825,70.0325581 237.251775,70.0325581 C238.124853,69.9927766 238.987887,70.2317579 239.7153,70.7147287 C240.823042,70.7154402 241.926518,70.5779375 243,70.3054264 L243,72.4883721 L241.35765,72.351938 Z M238.6204,80.4015504 L236.293738,80.4015504 C235.746288,80.9472868 235.3357,81.3565891 235.3357,81.7658915 C235.3357,82.5844961 235.88315,82.8573643 237.251775,82.8573643 C239.16785,82.8573643 239.989025,81.7658915 239.989025,80.9472868 C239.989025,80.4015504 239.989025,80.4015504 238.6204,80.4015504 L238.6204,80.4015504 Z M237.251775,71.8062016 C236.822634,71.7659971 236.391684,71.861464 236.020013,72.0790698 C235.733971,72.4752923 235.589409,72.9556582 235.609425,73.4434109 C235.571059,73.9007383 235.727001,74.3531225 236.039258,74.6903414 C236.351514,75.0275603 236.791413,75.2186508 237.251775,75.2170543 C237.679163,75.2342398 238.103676,75.1401989 238.483538,74.944186 C238.791749,74.5591924 238.938851,74.0703884 238.894125,73.579845 C239.063562,73.1026491 238.954035,72.5711607 238.609607,72.1991982 C238.265179,71.8272357 237.742473,71.6759492 237.251775,71.8062016 L237.251775,71.8062016 Z" id="Shape" fill="#FFFFFF" fill-rule="nonzero"></path>
            </g>
        </g>
    </g>
</svg>