<?xml version="1.0" encoding="UTF-8"?>
<svg width="320px" height="320px" viewBox="0 0 320 320" version="1.1" xmlns="http://www.w3.org/2000/svg" xmlns:xlink="http://www.w3.org/1999/xlink">
    <title>cart</title>
    <g id="Page-1" stroke="none" stroke-width="1" fill="none" fill-rule="evenodd">
        <g id="cart" transform="translate(0.000000, 83.000000)">
            <path d="M283.872363,131.419355 L59.4120985,131.419355 L59.4120985,11.4630301 L5.67972598,11.4630301 C2.54078013,11.4630301 0,8.8920444 0,5.72863921 C0,2.56523403 2.54078013,0 5.67972598,0 L70.7601568,0 L70.7601568,119.962076 L283.872363,119.962076 C287.005612,119.962076 289.546392,122.52731 289.546392,125.690716 C289.546392,128.854121 287.005612,131.419355 283.872363,131.419355" id="Fill-40" fill="#505A8D"></path>
            <path d="M80.9512524,194 C68.9334484,194 59.1546392,184.172098 59.1546392,172.093961 C59.1546392,160.015825 68.9334484,150.193548 80.9512524,150.193548 C92.9690563,150.193548 102.742268,160.015825 102.742268,172.093961 C102.742268,184.172098 92.9690563,194 80.9512524,194 Z M82.5051546,159.580645 C76.4978118,159.580645 71.6082474,164.494757 71.6082474,170.532258 C71.6082474,176.575521 76.4978118,181.483871 82.5051546,181.483871 C88.5124975,181.483871 93.4020619,176.575521 93.4020619,170.532258 C93.4020619,164.494757 88.5124975,159.580645 82.5051546,159.580645 L82.5051546,159.580645 Z" id="Fill-41" fill="#505A8D"></path>
            <path d="M261.525773,194 C249.506426,194 239.731959,184.172098 239.731959,172.093961 C239.731959,160.015825 249.506426,150.193548 261.525773,150.193548 C273.545121,150.193548 283.319588,160.015825 283.319588,172.093961 C283.319588,184.172098 273.545121,194 261.525773,194 Z M263.082474,159.580645 C257.075131,159.580645 252.185567,164.494757 252.185567,170.532258 C252.185567,176.575521 257.075131,181.483871 263.082474,181.483871 C269.089817,181.483871 273.979381,176.575521 273.979381,170.532258 C273.979381,164.494757 269.089817,159.580645 263.082474,159.580645 L263.082474,159.580645 Z" id="Fill-42" fill="#505A8D"></path>
            <polyline id="Fill-43" fill="#E16B63" points="281.101803 109.516129 80.9484536 109.516129 84.1666278 12.516129 302 12.516129 281.101803 109.516129"></polyline>
        </g>
    </g>
</svg>