<?xml version="1.0" encoding="UTF-8"?>
<svg width="320px" height="320px" viewBox="0 0 320 320" version="1.1" xmlns="http://www.w3.org/2000/svg" xmlns:xlink="http://www.w3.org/1999/xlink">
    <title>telephone</title>
    <g id="Page-1" stroke="none" stroke-width="1" fill="none" fill-rule="evenodd">
        <g id="telephone" transform="translate(31.000000, 30.000000)">
            <path d="M178.266659,8.03222223e-14 C134.911319,8.03222223e-14 99.4774286,35.1028261 99.4774286,78.5397826 C99.4774286,94.7728261 104.31989,109.688913 112.683626,122.194348 L99.4774286,161.462826 L145.693451,150.056739 C155.599516,154.663261 166.602791,157.076739 178.266659,157.076739 C221.843143,157.076739 257.05589,121.976739 257.05589,78.5397826 C257.05589,35.1028261 221.843143,8.03222223e-14 178.266659,8.03222223e-14" id="Fill-28" fill="#E26F65"></path>
            <path d="M177.827209,19.7458696 C210.644242,19.7458696 237.249429,46.2630435 237.249429,78.9778261 C237.249429,111.689783 210.644242,138.209783 177.827209,138.209783 C145.007341,138.209783 118.404989,111.689783 118.404989,78.9778261 C118.404989,46.2630435 145.007341,19.7458696 177.827209,19.7458696" id="Fill-29" fill="#FFFFFF"></path>
            <path d="M137.550857,198.976304 C136.890264,200.513696 136.011363,202.048261 135.350769,203.582826 C133.590132,207.533696 132.050637,206.875217 127.208176,206.875217 C105.419934,207.092826 49.9584396,152.029348 50.619033,130.531304 C50.8401758,125.924783 49.9584396,124.387391 53.9191648,122.414783 C56.1220879,121.318261 58.3221758,120.439348 60.5222637,119.342826 C63.3829451,117.808261 47.0977582,40.5854348 44.0159341,40.8053985 C22.4488352,41.4643478 8.05802311e-14,57.9178261 8.05802311e-14,101.354783 C8.05802311e-14,161.024783 83.8528352,257.332174 156.478418,257.332174 C197.63367,257.332174 214.579451,237.368696 217.000681,217.184783 C217.661275,213.016304 139.311495,195.466304 137.550857,198.976304" id="Fill-30" fill="#505A8D"></path>
            <path d="M216.12178,216.746739 C216.561231,216.746739 216.782374,216.967174 217.221824,217.184783 C217.661275,212.798696 217.442967,208.630217 216.782374,204.461739 C216.561231,202.706739 214.14,200.951739 212.379363,200.513696 C191.251714,195.466304 169.902923,190.639348 148.556967,186.032826 C147.014637,185.815217 144.375099,187.129348 143.493363,188.446304 C141.514418,191.738696 139.532637,195.248696 137.772,198.976304 C163.74211,204.682174 189.930527,210.602826 216.12178,216.746739" id="Fill-31" fill="#9BCFDA"></path>
            <path d="M60.7434066,119.563261 C63.6040879,118.02587 66.4647692,116.491304 69.3254505,114.953913 C70.6466374,114.077826 72.1861319,111.443913 71.7466813,109.909348 C67.1253626,88.628913 62.2829011,67.568913 57.2221319,46.2913043 C56.7826813,44.5363043 55.022044,42.1228261 53.2614066,41.9023913 C49.9584396,41.243913 46.4371648,41.0263043 42.9158901,41.243913 C49.0795385,67.1308696 55.022044,93.2354348 60.7434066,119.563261" id="Fill-32" fill="#9BCFDA"></path>
            <path d="M209.544198,93.3032609 L152.551714,93.3032609 L152.551714,63.2308696 L138.906066,63.2308696 C138.109385,63.2308696 137.465802,62.5865217 137.465802,61.7952174 C137.465802,61.001087 138.109385,60.3567391 138.906066,60.3567391 L155.432242,60.3567391 L155.432242,90.4319565 L209.544198,90.4319565 C210.340879,90.4319565 210.984462,91.0734783 210.984462,91.8676087 C210.984462,92.6617391 210.340879,93.3032609 209.544198,93.3032609" id="Fill-33" fill="#505A8D"></path>
            <path d="M158.213538,109.038913 C155.109033,109.038913 152.582901,106.52087 152.582901,103.426304 C152.582901,100.328913 155.109033,97.8108696 158.213538,97.8108696 C161.318044,97.8108696 163.844176,100.328913 163.844176,103.426304 C163.844176,106.52087 161.318044,109.038913 158.213538,109.038913 Z M158.213538,100.685 C156.696725,100.685 155.463429,101.914348 155.463429,103.426304 C155.463429,104.938261 156.696725,106.167609 158.213538,106.167609 C159.730352,106.167609 160.963648,104.938261 160.963648,103.426304 C160.963648,101.914348 159.730352,100.685 158.213538,100.685 L158.213538,100.685 Z" id="Fill-34" fill="#505A8D"></path>
            <path d="M203.482615,109.038913 C200.375275,109.038913 197.849143,106.52087 197.849143,103.426304 C197.849143,100.328913 200.375275,97.8108696 203.482615,97.8108696 C206.587121,97.8108696 209.113253,100.328913 209.113253,103.426304 C209.113253,106.52087 206.587121,109.038913 203.482615,109.038913 Z M203.482615,100.685 C201.965802,100.685 200.732505,101.914348 200.732505,103.426304 C200.732505,104.938261 201.965802,106.167609 203.482615,106.167609 C204.999429,106.167609 206.232725,104.938261 206.232725,103.426304 C206.232725,101.914348 204.999429,100.685 203.482615,100.685 L203.482615,100.685 Z" id="Fill-35" fill="#505A8D"></path>
            <polyline id="Fill-36" fill="#E16B63" points="208.89778 87.4786957 158.068945 87.4786957 158.885473 63.7932609 214.205209 63.7932609 208.89778 87.4786957"></polyline>
        </g>
    </g>
</svg>