<?xml version="1.0" encoding="UTF-8"?>
<svg width="320px" height="320px" viewBox="0 0 320 320" version="1.1" xmlns="http://www.w3.org/2000/svg" xmlns:xlink="http://www.w3.org/1999/xlink">
    <title>grocery</title>
    <g id="Page-1" stroke="none" stroke-width="1" fill="none" fill-rule="evenodd">
        <g id="grocery" transform="translate(53.000000, 16.000000)">
            <path d="M147.037548,204.281509 L75.4443247,204.281509 L75.4443247,59.380566 C75.4443247,39.6132075 91.4689601,23.5888679 111.23971,23.5888679 C131.01046,23.5888679 147.037548,39.6132075 147.037548,59.380566 L147.037548,204.281509" id="Fill-37" fill="#9BCFDA"></path>
            <polygon id="Fill-38" fill="#9BCFDA" points="98.8336196 47.0281132 123.648253 47.0281132 123.648253 13.4292453 98.8336196 13.4292453"></polygon>
            <path d="M124.062853,13.4292453 L98.4190202,13.4292453 C94.7097047,13.4292453 91.702019,10.4245283 91.702019,6.71584906 C91.702019,3.00716981 94.7097047,0 98.4190202,0 L124.062853,0 C127.769715,0 130.777401,3.00716981 130.777401,6.71584906 C130.777401,10.4245283 127.769715,13.4292453 124.062853,13.4292453" id="Fill-39" fill="#505A8D"></path>
            <path d="M97.7640021,123.953774 C96.6821185,124.841698 95.5609828,125.736981 94.4055015,126.627358 C82.1564194,136.065849 68.7567625,139.21283 68.7567625,139.21283 C68.7567625,139.21283 75.2137191,127.059057 87.460348,117.620566 C88.7777438,116.605094 90.0853266,115.636226 91.3757366,114.713962 C89.7713104,112.496604 88.1178193,110.276792 86.4079033,108.059434 C84.2392295,105.243585 82.0411166,102.511132 79.8282842,99.8596226 C78.194419,101.255283 76.4550641,102.668113 74.6273921,104.078491 C62.3807632,113.516981 48.978653,116.663962 48.978653,116.663962 C48.978653,116.663962 55.4356096,104.510189 67.6822385,95.0716981 C69.3234635,93.8060377 70.9475156,92.6139623 72.5396755,91.4954717 C68.0821185,86.5996226 63.6024822,82.0716981 59.1743641,77.9607547 C57.4448222,79.444717 55.5926177,80.9556604 53.6422832,82.4592453 C41.3956542,91.8977358 27.9935441,95.044717 27.9935441,95.044717 C27.9935441,95.044717 34.4505007,82.8909434 46.6971296,73.4524528 C48.0316981,72.424717 49.3564537,71.4435849 50.65913,70.5115094 C31.2514614,54.5950943 13.8677249,47.6977358 5.28134646,54.3154717 C-8.46912532,64.9141509 5.55611057,106.158491 36.6118148,146.438868 C67.6650658,186.719245 103.985447,210.781509 117.738372,200.18283 C129.678344,190.979811 120.67246,158.673585 97.7640021,123.953774" id="Fill-40" fill="#FBB936"></path>
            <path d="M27.9935441,95.044717 C27.9935441,95.044717 41.3956542,91.8977358 53.6422832,82.4592453 C55.5926177,80.9556604 57.4448222,79.444717 59.1743641,77.9607547 C56.3065137,75.299434 53.4631958,72.8098113 50.65913,70.5115094 C49.3564537,71.4435849 48.0316981,72.424717 46.6971296,73.4524528 C34.4505007,82.8909434 27.9935441,95.044717 27.9935441,95.044717" id="Fill-41" fill="#FFEB7C"></path>
            <path d="M48.978653,116.663962 C48.978653,116.663962 62.3807632,113.516981 74.6273921,104.078491 C76.4550641,102.668113 78.194419,101.255283 79.8282842,99.8596226 C77.4142852,96.9677358 74.9806602,94.1764151 72.5396755,91.4954717 C70.9475156,92.6139623 69.3234635,93.8060377 67.6822385,95.0716981 C55.4356096,104.510189 48.978653,116.663962 48.978653,116.663962" id="Fill-42" fill="#FFEB7C"></path>
            <path d="M68.7567625,139.21283 C68.7567625,139.21283 82.1564194,136.065849 94.4055015,126.627358 C95.5609828,125.736981 96.6821185,124.841698 97.7640021,123.953774 C95.7425233,120.887736 93.6106482,117.802075 91.3757366,114.713962 C90.0853266,115.636226 88.7777438,116.605094 87.460348,117.620566 C75.2137191,127.059057 68.7567625,139.21283 68.7567625,139.21283" id="Fill-43" fill="#FFEB7C"></path>
            <path d="M174.236742,101.802264 C172.413976,100.99283 171.479288,98.9103774 172.136759,96.9849057 C172.872734,94.8362264 179.638801,75.8341509 190.568034,70.7543396 C193.951067,69.1820755 197.513187,69.0422642 200.876594,70.3496226 C202.875994,71.1320755 203.87692,73.3862264 203.096786,75.3901887 C202.316653,77.3966038 200.059662,78.39 198.055356,77.61 C196.661909,77.0679245 195.327341,77.1341509 193.857843,77.8160377 C190.712776,79.2754717 187.162921,83.4943396 183.858392,89.6950943 C181.14019,94.7920755 179.525951,99.4622642 179.508778,99.5088679 C178.809602,101.542264 176.594316,102.626415 174.560571,101.929811 L174.236742,101.802264" id="Fill-44" fill="#78C1A6"></path>
            <path d="M193.467776,88.3215094 C188.894917,86.290566 183.865752,86.0624528 178.873386,87.345283 C176.48392,82.780566 172.941425,79.2018868 168.371019,77.1684906 C154.510151,71.009434 136.432144,81.4069811 127.990508,100.39434 C119.551324,119.379245 123.942643,139.764717 137.803511,145.926226 C142.376371,147.95717 147.405536,148.185283 152.397902,146.902453 C154.787368,151.46717 158.329862,155.045849 162.900269,157.079245 C176.761137,163.238302 194.839144,152.840755 203.28078,133.853396 C211.719964,114.868491 207.328644,94.4830189 193.467776,88.3215094" id="Fill-45" fill="#E26F65"></path>
            <path d="M183.080712,132.533774 C170.056402,132.533774 165.986459,121.137925 149.704232,121.137925 C133.424458,121.137925 132.202739,132.533774 115.959765,132.533774 C99.7143367,132.533774 96.7900615,121.137925 83.3585124,121.137925 C69.9269632,121.137925 61.7846232,132.533774 48.353074,132.533774 C35.9666098,132.533774 27.034323,122.847547 17.4200323,121.341509 L17.4200323,252.163208 C17.4200323,256.203019 20.7245614,259.506981 24.7626125,259.506981 L205.859147,259.506981 C209.897198,259.506981 213.201727,256.203019 213.201727,252.163208 L213.201727,121.341509 C203.646315,122.852453 195.091829,132.533774 183.080712,132.533774" id="Fill-46" fill="#78C1A6"></path>
        </g>
    </g>
</svg>