<?xml version="1.0" encoding="UTF-8"?>
<svg width="320px" height="320px" viewBox="0 0 320 320" version="1.1" xmlns="http://www.w3.org/2000/svg" xmlns:xlink="http://www.w3.org/1999/xlink">
    <title>money</title>
    <g id="Page-1" stroke="none" stroke-width="1" fill="none" fill-rule="evenodd">
        <g id="money" transform="translate(62.000000, 48.000000)">
            <path d="M115.890759,142.974109 L131.565135,158.967391 L159.101451,131.902198 L161.7,95.3804348 L8.38096977,95.4322387 C6.2624366,95.4322387 4.14390343,96.2940675 2.45,98.0224347 L37.6111889,133.899004 L37.6111889,133.555214 L62.5166464,158.967391 L78.1910225,142.974109 L115.890759,142.974109 Z M159.25,100.271739 L159.25,136.956522 L193.55,102.741944 C191.897585,101.093644 189.83094,100.271739 187.764295,100.271739 L159.25,100.271739 L159.25,100.271739 Z" id="Fill-11" fill="#695752"></path>
            <path d="M36.3855703,80.7065217 L14.7,80.7065217 L14.7,42.2980044 C14.7,35.3903022 19.4776335,29.3478261 25.725,29.3478261 C31.6079368,29.3478261 36.75,34.9623914 36.75,42.2980044 L36.75,80.7065217 L36.3855703,80.7065217" id="Fill-12" fill="#78C1A6"></path>
            <path d="M146.489537,29.3478261 L26.95,29.3478261 C33.7589794,29.3478261 39.7104632,34.8899978 39.7104632,42.1310262 L39.7104632,136.27832 L64.8095943,161.413043 L80.5504344,145.649882 L118.414664,145.649882 L134.150869,161.413043 L159.25,136.27832 L159.25,42.1310262 C159.25,34.8899978 153.298516,29.3478261 146.489537,29.3478261" id="Fill-13" fill="#FFFFFF"></path>
            <polygon id="Fill-14" fill="#B3B5B8" points="51.45 90.4891304 144.55 90.4891304 144.55 83.1521739 51.45 83.1521739"></polygon>
            <polygon id="Fill-15" fill="#B3B5B8" points="51.45 100.271739 144.55 100.271739 144.55 95.3804348 51.45 95.3804348"></polygon>
            <polygon id="Fill-16" fill="#B3B5B8" points="51.45 114.945652 144.55 114.945652 144.55 110.054348 51.45 110.054348"></polygon>
            <polygon id="Fill-17" fill="#B3B5B8" points="66.15 127.173913 129.85 127.173913 129.85 122.282609 66.15 122.282609"></polygon>
            <path d="M181.3,166.689051 L181.3,-2.44565217 L100.45,-2.44565217 L100.45,193.206522 L181.3,193.206522 L181.3,166.689051 Z M125.361394,188.315217 L110.25,188.315217 L110.25,7.33695652 L176.4,7.33695652 L176.4,188.315217 L125.361394,188.315217 L125.361394,188.315217 Z" id="Fill-18" fill="#78C1A6"></path>
            <path d="M173.95,170.806737 L173.95,27.1906226 C166.337236,24.1401102 160.375541,17.7605206 157.778455,9.7826087 L124.761552,9.7826087 C122.356347,17.1714247 117.064004,23.1856834 110.25,26.4553943 L110.25,171.541966 C117.09524,174.829943 122.409895,180.880735 124.801713,188.315217 L157.742757,188.315217 C160.321993,180.291639 166.306,173.87095 173.95,170.806737" id="Fill-19" fill="#D2E8DC"></path>
            <path d="M159.25,188.315217 L173.95,188.315217 L173.95,171.195652 C167.016878,174.191799 161.589372,180.469866 159.25,188.315217" id="Fill-20" fill="#505A8D"></path>
            <path d="M110.25,173.641304 L110.25,188.315217 L124.95,188.315217 C122.533809,181.811234 117.164995,176.517759 110.25,173.641304" id="Fill-21" fill="#505A8D"></path>
            <path d="M173.95,26.9021739 L173.95,9.7826087 L159.25,9.7826087 C161.610762,17.6283276 167.029967,23.9022081 173.95,26.9021739" id="Fill-22" fill="#505A8D"></path>
            <path d="M124.95,9.7826087 L110.25,9.7826087 L110.25,22.0108696 C117.152491,19.6127773 122.513561,15.2017613 124.95,9.7826087" id="Fill-23" fill="#505A8D"></path>
            <path d="M142.09787,122.282609 C131.27453,122.282609 122.5,112.42878 122.5,100.274131 C122.5,88.1146979 131.27453,78.2608696 142.09787,78.2608696 C152.92547,78.2608696 161.7,88.1146979 161.7,100.274131 C161.7,112.42878 152.92547,122.282609 142.09787,122.282609" id="Fill-24" fill="#78C1A6"></path>
            <path d="M140.872973,146.73913 C137.491145,146.73913 134.75,144.003755 134.75,140.625 C134.75,137.250291 137.491145,134.51087 140.872973,134.51087 C144.258855,134.51087 147,137.250291 147,140.625 C147,144.003755 144.258855,146.73913 140.872973,146.73913" id="Fill-25" fill="#78C1A6"></path>
            <path d="M140.872973,66.0326087 C137.491145,66.0326087 134.75,62.7453026 134.75,58.6956522 C134.75,54.6411461 137.491145,51.3586957 140.872973,51.3586957 C144.258855,51.3586957 147,54.6411461 147,58.6956522 C147,62.7453026 144.258855,66.0326087 140.872973,66.0326087" id="Fill-26" fill="#78C1A6"></path>
            <path d="M8.12722731,222.554348 L187.86811,222.554348 C192.572856,222.554348 196,218.677272 196,214.368366 L196,103.655783 C196,101.398066 195.081432,99.3656523 193.654621,97.826087 L160.399667,131.306939 L160.390341,131.391427 L132.576853,158.366677 L116.742048,142.426544 L78.6517902,142.426544 L62.8216486,158.366677 L37.6566195,133.03895 L37.6566195,133.381597 L2.34071607,97.826087 C0.913905079,99.3656523 0,101.398066 0,103.655783 L0,214.368366 C0,219.109101 3.85145712,222.554348 8.12722731,222.554348 Z M158.1671,135.591848 L160.3329,133.429891 L158.1671,135.591848 L158.1671,135.591848 Z" id="Fill-27" fill="#E16B63"></path>
            <path d="M193.55,222.46029 C191.844289,224.151894 189.710989,225 187.577689,225 L8.41766301,225 C6.28901063,225 4.15571053,224.151894 2.45,222.46029 L78.802623,146.73913 L116.76514,146.73913 L132.548772,162.392226 L193.55,222.46029" id="Fill-28" fill="#C74645"></path>
        </g>
    </g>
</svg>