<?xml version="1.0" encoding="UTF-8"?>
<svg width="320px" height="320px" viewBox="0 0 320 320" version="1.1" xmlns="http://www.w3.org/2000/svg" xmlns:xlink="http://www.w3.org/1999/xlink">
    <title>money 2</title>
    <g id="Page-1" stroke="none" stroke-width="1" fill="none" fill-rule="evenodd">
        <g id="money-2" transform="translate(61.000000, 0.000000)">
            <path d="M119.114117,191.383219 L135.224467,207.277778 L163.526689,180.379654 L166.192771,144.083333 L8.61400841,144.134817 C6.43654951,144.134817 4.25909062,144.991326 2.51807229,146.709025 L38.6525045,182.364133 L38.6525045,182.022466 L64.2554362,207.277778 L80.3657857,191.383219 L119.114117,191.383219 Z M163.674699,144.083333 L163.674699,179.472222 L198.927711,146.466278 C197.229384,144.876204 195.105318,144.083333 192.981252,144.083333 L163.674699,144.083333 L163.674699,144.083333 Z" id="Fill-65" fill="#695752"></path>
            <path d="M128.421687,235.823554 L128.421687,63.1944444 L45.3253012,63.1944444 L45.3253012,262.888889 L128.421687,262.888889 L128.421687,235.823554 Z M68.4107763,255.305556 L52.8795181,255.305556 L52.8795181,70.7777778 L120.86747,70.7777778 L120.86747,255.305556 L68.4107763,255.305556 L68.4107763,255.305556 Z" id="Fill-66" fill="#78C1A6"></path>
            <path d="M120.86747,236.96124 L120.86747,86.489053 C112.747017,83.2929126 106.379249,76.6087685 103.607341,68.25 L68.3726744,68.25 C65.8055637,75.9915498 60.1522048,82.2929225 52.8795181,85.7187258 L52.8795181,237.731568 C60.1903066,241.176509 65.8579537,247.516159 68.4107763,255.305556 L103.569239,255.305556 C106.322097,246.898941 112.708916,240.171735 120.86747,236.96124" id="Fill-67" fill="#D2E8DC"></path>
            <path d="M103.240964,255.305556 L120.86747,255.305556 L120.86747,237.611111 C112.554087,240.70787 106.046063,247.196756 103.240964,255.305556" id="Fill-68" fill="#505A8D"></path>
            <path d="M52.8795181,237.611111 L52.8795181,255.305556 L67.9879518,255.305556 C65.5046275,247.462769 59.991277,241.079665 52.8795181,237.611111" id="Fill-69" fill="#505A8D"></path>
            <path d="M120.86747,88.4722222 L120.86747,68.25 L103.240964,68.25 C106.071711,77.5176344 112.574646,84.9285589 120.86747,88.4722222" id="Fill-70" fill="#505A8D"></path>
            <path d="M67.9879518,68.25 L52.8795181,68.25 L52.8795181,85.9444444 C59.971611,82.4743754 65.484587,76.0915807 67.9879518,68.25" id="Fill-71" fill="#505A8D"></path>
            <path d="M86.8758197,187.055556 C75.0518519,187.055556 65.4698795,177.436651 65.4698795,165.571779 C65.4698795,153.702238 75.0518519,144.083333 86.8758197,144.083333 C98.6951361,144.083333 108.277108,153.702238 108.277108,165.571779 C108.277108,177.436651 98.6951361,187.055556 86.8758197,187.055556" id="Fill-72" fill="#78C1A6"></path>
            <path d="M88.1325301,214.861111 C83.9579629,214.861111 80.5783133,212.033881 80.5783133,208.541667 C80.5783133,205.053634 83.9579629,202.222222 88.1325301,202.222222 C92.3020979,202.222222 95.686747,205.053634 95.686747,208.541667 C95.686747,212.033881 92.3020979,214.861111 88.1325301,214.861111" id="Fill-73" fill="#78C1A6"></path>
            <path d="M88.1325301,131.444444 C83.9579629,131.444444 80.5783133,128.04675 80.5783133,123.861111 C80.5783133,119.670454 83.9579629,116.277778 88.1325301,116.277778 C92.3020979,116.277778 95.686747,119.670454 95.686747,123.861111 C95.686747,128.04675 92.3020979,131.444444 88.1325301,131.444444" id="Fill-74" fill="#78C1A6"></path>
            <path d="M8.35303913,273 L193.087952,273 C197.923417,273 201.445783,269.071305 201.445783,264.705031 L201.445783,152.518423 C201.445783,150.230648 200.501693,148.171174 199.035239,146.611111 L164.856309,180.537726 L164.846724,180.623339 L136.255656,207.957737 L119.98568,191.805377 L80.8370993,191.805377 L64.5623312,207.957737 L38.7028939,182.288041 L38.7028939,182.63525 L2.40575195,146.611111 C0.939297573,148.171174 0,150.230648 0,152.518423 L0,264.705031 C0,269.508883 3.95367601,273 8.35303913,273 Z M162.561711,183.11475 L164.787687,180.88525 L162.561711,183.11475 L162.561711,183.11475 Z" id="Fill-75" fill="#E16B63"></path>
            <path d="M198.927711,270.375006 C197.17465,272.123414 194.982131,273 192.789611,273 L8.65617204,273 C6.46365236,273 4.27590942,272.123414 2.51807229,270.375006 L80.9949912,192.111111 L120.011333,192.111111 L136.233112,208.289842 L198.927711,270.375006" id="Fill-76" fill="#C74645"></path>
            <path d="M183.819277,116.277778 C171.322625,116.277778 161.156627,105.505641 161.156627,92.2638889 C161.156627,79.0221366 171.322625,68.25 183.819277,68.25 C196.315929,68.25 206.481928,79.0221366 206.481928,92.2638889 C206.481928,105.505641 196.315929,116.277778 183.819277,116.277778" id="Fill-77" fill="#FFE781"></path>
            <path d="M183.819277,70.7777778 C196.317877,70.7777778 206.481928,80.9845971 206.481928,93.5254623 C206.481928,106.070958 196.317877,116.277778 183.819277,116.277778 C171.320678,116.277778 161.156627,106.070958 161.156627,93.5254623 C161.156627,80.9845971 171.320678,70.7777778 183.819277,70.7777778 M183.819277,68.25 C169.914056,68.25 158.638554,79.568961 158.638554,93.5277778 C158.638554,107.486595 169.914056,118.805556 183.819277,118.805556 C197.729112,118.805556 209,107.486595 209,93.5277778 C209,79.568961 197.729112,68.25 183.819277,68.25" id="Fill-78" fill="#FDC408"></path>
            <path d="M132.198795,32.8611111 C123.171246,32.8611111 115.831325,26.059685 115.831325,17.6944444 C115.831325,9.33387196 123.171246,2.52777778 132.198795,2.52777778 C141.221306,2.52777778 148.566265,9.33387196 148.566265,17.6944444 C148.566265,26.059685 141.221306,32.8611111 132.198795,32.8611111" id="Fill-79" fill="#FFE781"></path>
            <path d="M134.716867,2.52777778 C143.743837,2.52777778 151.084337,9.90171643 151.084337,18.9583333 C151.084337,28.020096 143.743837,35.3888889 134.716867,35.3888889 C125.689898,35.3888889 118.349398,28.020096 118.349398,18.9583333 C118.349398,9.90171643 125.689898,2.52777778 134.716867,2.52777778 M133.457831,0 C123.725496,0 115.831325,7.92072665 115.831325,17.6919505 C115.831325,27.4631744 123.725496,35.3888889 133.457831,35.3888889 C143.190167,35.3888889 151.084337,27.4631744 151.084337,17.6919505 C151.084337,7.92072665 143.190167,0 133.457831,0" id="Fill-80" fill="#FDC408"></path>
        </g>
    </g>
</svg>